<svg data-slopcamera-line-weight="1.5" xmlns="http://www.w3.org/2000/svg" width="710" height="687" viewBox="24.448 24.452 661.104 637.158"><defs><mask id="a" width="710" height="687" x="0" y="0" mask-type="luminance" maskContentUnits="userSpaceOnUse" maskUnits="userSpaceOnUse"><path d="M0 0h710v687H0z"/><path d="M0 0h710v687H0zm358 49-1.8 1Q339 60.3 321.5 70q-13.8 7.7-27.5 15.7-11 6.5-22 12.6-10.7 6-21.2 12.2-9.8 6-19.8 11.4-9.8 5.4-19.5 11.1-10.2 6-20.6 11.8l-24.7 14q-13 7.8-26.1 15.2l-1.8 1q-12.5 7.2-25 14.1-21 11.7-41.3 23.9l-1 57-21 12-1 1-.1 63.3v55.1l-.1 13.6v17.4c-.1 11-.1 11 2.2 21.6 1 2.7 1 2.7 2.1 5l1.1 2.4c2.7 3.9 6 6.7 9.8 9.6q4.3 2.8 8.8 5.3l5 2.8 2.7 1.5 11.6 6.6 16 9.3 5 2.9 3.3 1.9 17.6 10.2q16.6 9.8 33.5 19 12.3 6.9 24.3 14.2l17.4 10.2q11.3 6.4 22.5 13 36 21 72.1 41.4l26 15.1L352 637q3.1-.2 6-1 4.9-2.4 9.6-5.3l5.6-3.3 3-1.7 13-7.5 17-9.8 6.6-3.8 1.6-1 24.5-13.8q12.5-6.9 24.8-14.4 12.6-7.5 25.3-14.7l16.7-9.5 1.8-1 26.2-15 1.6-1 19.3-11.3q10.2-6 20.6-11.7 13.4-7.4 26.4-15.2 7.5-4.5 15.1-8.8c19.2-10.2 19.2-10.2 35.9-23.7q4.2-5.7 6.4-12.5c2.3-8.7 2.3-17.4 2.2-26.4v-54L661 343v-57l-7.6-4.8-2.2-1.3L635 270h-2v-60l-10-6h-4v10l-2.4 1-4.6 2-1-14-5 1v-9l-3-2q-3.6 0-7 1-5.6 2.8-11 6v-17l-6-4h-5v9l-2 .8q-5.2 2.2-10 5.2v-24h-3l-1-3h-5l-1 9-10 6v-25c-5.4-2.8-5.4-2.8-11-4v10l-4 1-4 2-1-20-7-4-5 1v10l-2.1.8q-4.5 2-8.9 4.2v-25l-7-4-4 1-1 10-7 4-1-22-6-3-5 1v10l-2.4 1-4.6 2v-21l-6-4-5 1-1 1-1 9-8 4v-23l-6-4-5 1-1 14-6 3V98h-5l-3 2V83l-5-3h-5l-1 1v6l-2.2.9L394 91V72l-5-3-5 1v-9c-2.9.4-5 1-7.6 2.4L374 65c-2.7 1.7-4.9 3-7.9 4V53l-6-4z"/><path fill="#020202" d="M55 295q4.5 1.7 8.8 4l2 1.2 2.3 1.2 2.4 1.4 23.8 13.6 15.3 9q.8.3 1.7.9l26.5 15q9.9 5.4 19.5 11.3 8.2 5 16.6 9.6 14 7.8 27.7 16l16 9.1q6.8 3.9 13.3 7.9 11.2 6.6 22.3 12.9 14 7.8 27.8 15.9l2.9 1.7 25.6 15 18.4 10.7 1.6.8q3.9 2.3 7.7 4.3l2.8 1.6 2.5 1.4q4.3 2.6 8.5 5.5v165c-3.8-1.5-6.9-3-10.3-5l-1.5-.9-3.3-1.9-8.7-5-1.8-1q-9.3-5.5-18.6-10.6l-21-12q-9-5.5-18-10.7l-1.7-1-28.5-16.2-20.3-11.8q-10.2-6-20.5-11.7-16.2-9-32-18.6-21.7-12.7-43.6-24.9-13.8-7.5-27.2-15.5l-8.7-5-8.4-5-3.6-2.2c-5.4-3.2-10-6.2-14-11-2-3-3.4-5.6-4.3-9q-.5-7.5-.3-15.1V381l.1-28.1z"/><path fill="#030303" d="M653 297h2v61.7l-.2 35v16l-.2 15.5v5.7c0 16.5 0 16.5-2.5 23.6q-1.8 4.6-5.1 8.3c-4.3 3.8-9.3 6.5-14.4 9.2l-6.7 3.7-3.3 1.8q-6.3 3.4-12.4 7.1-9.7 6-19.7 11.5L569 508.5 545.5 522q-24.3 13.8-48.4 28-21.4 12.5-43 24.6l-32.7 19-21.6 12.3Q379.2 617.6 359 630h-2V466l17-8c6.2-3.5 6.2-3.5 12.3-7.2l16.2-9.6 1.5-.8q12.6-7.4 25.2-14.3l24.8-14.3q9-5.5 18.4-10.7l22.3-13 25.3-14.6 27.3-15.8q9-5.4 18.3-10.6l16.6-9.7C644.6 301 644.6 301 653 297m-76 94-3 2v18l5.5 3 5.4 2.8 3.7 2 5.3 2.8 1.7 1q4.4 2.3 8.4 5.4l-1.3.7q-11.5 5.8-22.5 12.4-10.7 6.4-21.5 12.5l-7.3 4.2-1.9 1-19 11-23.1 13.3-24.4 14-24 13.9c-5.9-1.6-11-4.5-16.3-7.5l-3-1.6q-13-7.2-25.7-14.9l-6 2v17q8 5 16 9.5l22.6 12.6 1.6 1 8.8 4.9c3-.6 5.3-1.6 8-3l2.3-1.3 2.6-1.5 2.7-1.4q11-6.2 21.8-12.8l21-12q13.8-7.6 27.4-15.6l23.5-13.6 27.7-16 11.8-6.7 1.7-1 7.1-4 4.9-3 2.8-1.6q4-2.2 7.7-4.5v-17q-9.8-6.2-20-11.7l-6.7-3.8-1.6-.9-9.8-5.5-2.2-1.3-4-2.3q-2.2-1.4-4.7-2.5c-2.3-.3-2.3-.3-4 0m47-176h4v79l-25 14-12.4 7.3-17.5 10.1-1.7 1-6.7 3.9-11.9 6.9-27.3 15.6-28 16.2-21.6 12.5-18.5 10.7q-11.2 6.6-22.4 12.8-15 8.4-29.9 17.2l-13.9 8.1-4.5 2.6L359 449h-5v-75l17-9 10.3-6 5.5-3.3 3-1.8 20.3-12c14-8 14-8 27.6-16.6q14.9-9.7 30.3-18.4l19.8-11.5 1.8-1.1q19.5-11.5 39-23.3 18.8-11.6 38-22.6l3.2-1.8 1.6-1 15.8-9.2q13.1-7.8 26.5-15.3l2.7-1.5 2.5-1.4q2.6-1.4 5.1-3.2"/><path fill="#dedede" d="M381 61h3v9l5-1 5 3v19l7-4h2v-6l1-1c5.2.6 5.2.6 7 1l3 2v17l3-2h5v16l6-3 1-14 5-1 6 4v23l8-4 1-9 2-2c2.2.3 2.2.3 5 1l5 3v21l5-3h2v-10l5-1 6 3 1 22 7-4 1-10 4-1 7 4v25l9-5h2v-10l5-1 7 4 1 20 5-3h3v-10c4.4.7 6.7 1.8 11 4v25l-3 3h-1l-1-21q-18.9 10.1-37.4 21-8.7 5.2-17.6 10-7.6 4.3-15 9h-2v11l-5-2-6-2-12 7-7-1c4.6-4 9.8-7 15-10h3v-7l-8-3c-17.6 9.9-17.6 9.9-35 20v-3l2-4 2.2-1.2 8.2-4.6 3.5-2 5.1-2.8 1.6-1q4.8-2.5 9.4-5.4l1-12 15-10 4 1 3 3q3-.2 6-1 4.6-2.2 9-4.9l2.5-1.3L494 161v-20l-6 3.7q-10 6-20.3 11.7-15 8.4-29.7 17.6l-1 12-9-1-26 15-2-3c2.8-3 5.4-5 9-7l2.8-1.6 3-1.7 3-1.6 7.2-4.1v-15l13-7 6 1 2 2c3-.6 5.3-1.6 7.9-3.1l2.2-1.3 2.2-1.4 4.4-2.7 2.2-1.2 9.1-5.3v-16l-4.7 2.7-6.6 3.8-1.7 1-20.9 12-1.9 1q-4.6 2.8-9.3 5.4l-3.4 2-3 1.6-5.5 3.5-1 14-5 1-3-2q-5.2 1.2-9.7 4.1l-1.7 1-3.6 2-5.6 3.3-7.6 4.4-16.7 9.6-2.9 1.6-2.7 1.5-2.3 1.3q-3.4 1.9-7.2 3.2v-5l2-1 34.4-19.5 2.5-1.4L404 172l1-15 13-7q4.5.8 9 2l2.2-1.3 8.2-4.6 3.5-2 5.1-2.8 1.6-1q4.5-2.4 9.4-4.3v-16q-19.7 10.4-39 21.8l-11.6 6.8-4.3 2.6-3.1 1.8-1 12-5 1c-2.8-.4-2.8-.4-5-1q-21 11.7-41.7 23.9-12 7.1-24.3 14.1l-2-3c2.9-3.1 5.8-5.2 9.5-7.3l1.6-1 5-2.8 5.4-3 3.6-2 13.9-8.2q13-7.5 26-14.7l1-14 13-7 4 1 5 1 2.1-1.3 8-4.6 3.3-2 5-2.8 3-1.8 6.6-3.5 1-14q-25.6 14-50.6 28.6L377 146l-1 16-5-1c-2.8-2-2.8-2-5-4q-5.4 2-10.3 5l-1.6.9-5 2.8-3.4 2-8.9 5.2-5.4 3.2L311 188l-2-4q4.2-3.2 8.8-5.9l3-1.7 3-1.8 3.2-1.8 25.8-14.7 2.7-1.6 2.4-1.3q2.6-1.4 5.1-3.2l1-13 14-7c3.1.8 5.3 1.5 8 3q16.1-8.8 32-18l1-14q-15 7.9-29.8 16.3-15 8.6-30.2 16.7l-1 8-4 .2c-2.8.3-5 .8-7.6 2L340 150l-1-3q3.1-3.5 7-6h3v-16l8 1 15-8 6 2 10.4-5.8 3.5-2 5.1-2.8 1.6-1q4.8-2.6 9.4-5.4h2l-1-14c-15.2 8.1-15.2 8.1-30 17q-9.1 5.5-18.9 10.6-10.8 5.8-21.1 12.4h-2l1 18h-3l-12-7h-5l-17 10-1-2-4-1 8.8-5 2.5-1.4 2.5-1.3 2.2-1.3c2-1 2-1 5-2l-1-24c9.5-6.7 9.5-6.7 14-9l9 1 2.1-1.3q12-7.5 24.6-14.5 6.8-3.8 13.3-8.2h2l-1-13-4-1zm7 19-5 2.8-1.5.8-5 3-3.6 2q-23.6 13.6-46.6 28C324 118 324 118 321 119v15l3 2h3v-14l5-2 3.6-1.7 1.8-1 2-1 1.9-1 4.7-2.3q4.5.8 9 2c17.9-9.9 17.9-9.9 35-21V80zm128 73-1.8 1q-29.7 17.7-60.2 34v9c5-1.8 9.6-4.5 14.3-7.1l2.5-1.4 6.2-3.5c3.4.6 6 1.4 9 3l2-1.2 7.8-4.6 3.3-2q9.2-5.4 18.9-10.2v-17zm-40 36c-2 .8-2 .8-3.9 2l-2.1 1.2-2.2 1.3-2.3 1.3-5.5 3.2v2l4 1 17-10-1-2c-1.8-.2-1.8-.2-4 0"/><path fill="#eaeaea" d="m246 156 3 1 1 3-1.8 1c-14.7 7.9-14.7 7.9-29.1 16.3L201 188l-3.5 2-5 3-2.9 1.6C187 196 187 196 182 198v19c-3.1-.8-5.3-1.5-8-3-3.4.4-6 1-9 2.5l-3.4 1.9-1.7 1-5.7 3.3-3.7 2.1L130 237h-2l-1 82 6 2 10 6v-82c14.7-9 14.7-9 21.9-13q12.1-6.6 24.1-14h2v-18l7.6-3.7c2.5-1.2 2.5-1.2 4.4-3.3 3 .6 5.3 1.6 8 3l11.4-6.3 3.8-2.1 5.6-3.1 1.7-1q3.9-2 7.5-4.5h5v3l-26 15-2.8 1.6-6.7 3.8-2 1.2-4.5 2.4h-2v17c-3.6 0-5.7 0-9-1l-11.3 6.3-1.7 1q-12.7 7-25.2 14.4l-2.2 1.3-2 1.1c-1.6.9-1.6.9-4.6 1.9l1 81 14 8v-81l8-5 2 1v4l-5 3h-2l-1 80 5 2 12 7v-82l5-3 7 1c-3 2.5-5.2 3.5-9 5l1 81 13 7v-83l21-12 13.3-7.7 3.2-2 7.5-4.3h2v-14l15-9 5 2 5 1 2.2-1.4q14.8-9 29.8-17.6l3 1-1 4-1.8 1q-18.1 10-35.6 21l-2.5 1.5-2.2 1.4C259 240 259 240 256 241v13q-5.5-.8-11-2l-1.7 1-32 18.8-2.8 1.6-2.5 1.4-2.2 1.3-1.8.9h-2l1 83 16 9v-88l47-26 1-11 6.8-3.4 1.9-1q4.3-2.6 9.3-3.6l3 3q5.6-2.1 10.8-5.2l1.6-1 5.4-3 3.7-2.2 25-14.5 1.6-.9 4.3-2.5 2.5-1.4 5.1-3.3 3 1-1 4-2.7 1.5Q310.3 231 276 252l-1 9-4 1-3-2c-3.1.4-5.3 1.2-8.1 2.6l-3.6 2Q239 274.6 222 284v88l12 7 2-1 1-14h1l1 21c-7-1-7-1-9-1.8l-1.5-1-1.8-1-2-1.3-4.5-2.8-2.5-1.5-15.3-9-3.4-1.8-24.8-14.2q-9-5-18.1-10.4l-23.1-13-10-5.6-11.6-6.5-25-14.2-3.7-2.1q-10-5.6-19.7-11.7v-4c3 .7 5 1.5 8 3v-10l-3.4 2-4.5 2.5-2.2 1.3-2.2 1.2-2 1.2-1.7.8h-2l.2 1.4c1 7.5 1 15 1 22.4v29l.2 43v23.7l.1 12.6v16.1c0 6.4.1 12.4 2 18.5l.9 2.3c.6 2 .6 2 .6 5l-4 2q-2.6-4.2-4-9c-.8-5.5-.5-11.1-.5-16.6v-18.6l.1-14.3.1-26.9.1-30.6.2-63 21-12 1-30h1l1 14h1l2 36 4 1 1.5-.9 1.9-1.1 1.9-1.1 1.7-.9h2v-59l16-9 3-2 4 1-3 5 2 1-1 1-1 84 5 2 9 5v-81c40.7-24.4 40.7-24.4 47-26v-15l13-9q4.5.8 9 2l1.9-1 8.8-5.2 1.6-1q12.8-7.5 25.7-14.8 7.6-4.4 15-9m-141 68-11 6v70l11 6h2v-82z"/><path fill="#ebebeb" d="m402 258 4 1-1 3-1.3.7Q377 277.3 351 293l-1 15-4 1-5-3q-5 1.9-9.7 4.5l-2.7 1.4-2.9 1.6-2.9 1.6q-13 7.2-25.8 14.9c-1.2 16.7-1.3 33.5-1.5 50.3l-.2 11.8-.3 22.9 5 2 13 7v-87c10.1-6.7 10.1-6.7 15-9.5l1.6-.9 4.9-2.7 3.3-1.8 6.3-3.5 5.6-3.1 2.5-1.4 2-1.3 1.8-.8h2v-16l12-7c6 1 6 1 9 2q21.3-11.6 42.2-24l8.9-5.1 2.9-1.7 2-1.2h3l-1 3q-2.5 3-5.9 5.2l-7.2 4.1q-3 1.5-5.7 3.2l-3 1.7-14.8 8.5q-15.1 8.8-30.4 17.3l-1 15-6-1c-2-.3-2-.3-4 0-2.6 1.1-2.6 1.1-5.3 2.7l-1.5 1-5 2.7-3.1 1.8L334 330l-16 9v88l12 7 1-90 4-3 3 1-3 5v91l5 2 4.8 2.6 2.4 1.4 1.8 1v-2.4l-.4-23-.2-11.8q-.5-27-.4-53.8 15.6-9.5 31.6-18.3l1.6-.9 4.4-2.4 5.4-3.4 1-11c8.5-5.7 8.5-5.7 13-8l9 1q20.1-11.2 40-23l3 1-1 4-1.7 1q-17.3 9.6-34.4 19.6l-1.6 1q-7.2 4-14.3 8.4h-2l1 2v12l-4 1-4-3q-3.6.4-7 1.9l-6.7 3.5-2.6 1.4c-13.6 6.5-13.6 6.5-25.7 15.2l-1 14 8-5 6 2c-3.8 3.2-7.3 4.6-12 7v73c6.5-.5 6.5-.5 10-2.6l2-1.4 3 1-2 5-9 5c-5.4-1.5-10-4.1-14.8-7l-2.6-1.5-11.7-7-4-2.3-2-1.2-19.4-11q-16.7-9.3-33-19.2-17.2-10.1-34.5-19.8l3-1v-2c5.7 1.6 9.5 4 15 7v-89l37-21 2 1q-1.8 3-4 6-3 2.1-6.1 3.8l-1.8 1-5.5 3-3.8 2q-7.1 4-14.8 7.2v89l5 2 4.8 2.6 2.4 1.4 1.8 1 1-2 .2-8v-2.5l.1-8.3v-5.7l.2-15 .2-15.4.3-30.1 4-2 1 3-1 1-1 89 5 2 11 6v-85l21-12 6.5-3.7 2.6-1.5 5-3 2.6-1.4 2.1-1.3q3.5-1.7 7.2-3.1v-14l12-7 4 1 5 1 1.6-1z"/><path fill="#040404" d="M476 200c1.7 5.2 2.1 9.5 2 15l-1.7 1q-18 9.9-35.6 20.4l-27.8 16.2-1.5.9-29.7 17L360 283l-9-2-10 6h-2v14l-5 2.7q-16 8.9-32 18.4l-10 5.9-1 83-5-1-9-6v-90l19-10 11.7-6.6 2.8-1.6 6.5-3.8 5 1 2 2 4 1v-13q12.2-7.7 24.8-14.6 16.5-9.2 32.6-18.7l17.4-10 1.6-1 19.1-11 2-1 9-5.2L454 210c4 1.2 7.4 2.7 11 5v-11c2.4-1.5 4.5-2.8 7.2-3.7 1.8-.3 1.8-.3 3.8-.3"/><path fill="#060606" d="M435 112h2v14l-5 3-5 2.8-3.4 2-4.9 2.8-3 1.8-7.7 4.6q-4.5-.8-9-2l-2.3 1.3-3 1.7-3.1 1.7-2.6 1.3h-2v14l-3.7 2.1Q360 175.8 338 188.7l-39 22.5-16 9.2-2.6 1.6-4.7 2.8c-3 1.8-5.5 3.1-8.8 4l-2 .2-4-3c-6 1.6-10.8 4.7-16 8l-1 14-4.2 2.4-5.8 3.2-2.7 1.5L197 275l-1 81c-5-1-5-1-12-5v-82c9-5.6 9-5.6 12.7-7.7l2.5-1.4 2.6-1.5 5.5-3.2 2.9-1.6 13.6-7.8 2.5-1.5 5.7-3.3 7 2v-15l5.1-2.8q18-9.8 35.7-20.3 10.5-6.3 21-12l22.6-13 13.1-7.7 1.8-1 8.6-5q8.7-4.8 17.1-10.2l12 6v-16q19.4-11.8 39.2-22.8l16-9z"/><path fill="#040404" d="m497 204 3 1-3 2-1 18-5.2 3-35.8 20.5q-18.9 11-37.7 21.6l-14.7 8.4-5 2.9-2.3 1.3L379 292l-5-2q-4 .5-7.4 2.2l-2.3 1.4-4.3 2.4h-2v16l-4.7 2.5-6.2 3.4-1.7.9q-11.7 6.3-23.1 13.1l-2 1.2-1.6 1q-3.2 1.6-6.7 2.9v84l-5 1-11-7v-85q12.9-8 26-15.3l5-2.8 4.3-2.4 7.7-4.5 2.2 1c3.1 1.2 3.1 1.2 7.8 2l1-15q9.8-6.7 20.2-12.3l9-5 1.9-1q6.8-3.7 13.5-7.8 10.2-6 20.5-11.6 22.3-12.6 44.3-25.7l1.9-1.1 9-5.4 3.3-2 3-1.7c2.4-1.4 2.4-1.4 5.4-2.4l2.3 1.4c2.8 1.8 2.8 1.8 6.7 2.6v-16z"/><path fill="#060606" d="M363 133h9l-2 4-6 2v13q-12.5 7.9-25.4 15-10.3 5.5-20.2 11.6l-18.2 10.5-26 14.8-1.6 1L252 217l-2.4-.5c-2.4-.5-4.2-.8-6.6-.5-2.8 1.3-2.8 1.3-5.6 3l-5.4 3h-2v17l-15 8q-15.2 8-30 17l-5 3-1 80c-6-2-6-2-15-8v-80l39.1-22.4 3-1.7 6.9-3.9 8 1 1-14q15.3-9.3 30.8-18.1l22.4-13q11.6-6.8 23.3-13.4Q324 159.1 349 144h9v-8z"/><path fill="#050505" d="M318 139q3.6.3 7 1c2.9 1.4 2.9 1.4 5.4 3l2.7 1.7 1.9 1.3 1 2-1.5.9q-30.3 17.2-60.3 34.7-14 8.3-28.2 16.2l-1.8 1-3.2 1.9q-3.6 2-7 4.3-5-.8-10-2l-12 8-1 15q-18.7 11.1-37.8 21.8l-1.7 1-4.6 2.5-2.6 1.5C162 256 162 256 159 257v78c-5-1-5-1-12-5v-82c10.1-6.7 10.1-6.7 15-9.4l1.5-.9 4.8-2.6 6.4-3.6 1.5-.8L193 221l9 2v-17l3.9-2q16.8-9.1 33.3-19 11.5-6.9 23.3-13.5 17-9.6 33.8-19.7l14.9-8.8 2.1-1.3z"/><path fill="#e7e7e7" d="M553 167h5l1 3h3v24l10-6h2v-9c5 .5 5 .5 7 1l4 3v17l13-7 7 1 1 1v9l5-1 1 14 5-3h2v-10c5 1 5 1 14 6v51h-1l-1-47c-4.3.9-7.2 2-11 4.2l-1.6.9-5.2 3-3.6 2-8.6 4.9-3-1v-3l3.4-2 1.9-1.1 1.7-.9h2l-1-11-2 1.2-7.8 4.6-3.3 2q-9.2 5.5-18.9 10.2l-2-2v-2l3-1.7q13.2-7.4 26-15.3l1-10q-26.5 13-52 28l-5-2c-3 .4-5 1-7.7 2.4l-2.6 1.7-2.7 1.6-2 1.3h-2v5l-2.6-.2c-3.4 0-3.4 0-6.2 1.3l-2.8 1.6-1.6.8-5 2.8-3.5 2q-14.7 8.1-29.3 16.7l-2-2q1.9-2.7 4-5 3-2 6-3.6l1.7-1 5.5-2.9 3.6-2 7-3.8 10.5-5.9 1.7-.8h2l-.5-2q-.8-5-.5-10l11-7-2-4-5.2 2.8-3 1.6-7.8 4.6-1 12-11-2-2.5 1.5L482 238l-2.7 1.6-8.4 5-2.8 1.6-2.5 1.5-2.3 1.3-2.3 1h-5c1.1-2.3 1.1-2.3 3-5q2.9-2 6-3.6l1.7-1 5.5-2.9 7.2-4 1.8-.8q6.6-3.6 12.8-7.7h2v-15c9.4-6.8 9.4-6.8 12.3-7.7l1.7-.3-2-3c-3.8.6-6.8 1.7-10.2 3.6L493 205h-2v16q-5.6-1.1-11-3l-2.6 1.7q-13.2 8.3-26.8 16.1l-1.6 1q-10.4 6-21 11.2v-5q24.9-14.7 50-29l1-16c4 1 4 1 5.8 2l1.2 1c2.2.3 2.2.3 5 0q3.9-1.7 7.3-4l2-1.2 4.7-2.8c2.2.5 3.8 1 5.8 2l1.2 1q3.6-.2 7-1 4.4-2.2 8.6-5c7.6-4.8 7.6-4.8 11.4-5.8l2-.2v-2l11-6zm3 11q-27.6 16.2-55 33v3l6 1 1.5-.8 6.8-3.6 2.4-1.3 2.3-1.2 2.1-1.2c1.9-.9 1.9-.9 4.9-1.9l4 6c5.5-1.6 10.2-4.2 15.2-7l2.4-1.4q4.8-2.7 9.4-5.6v-19zm23 11-3.5 1.8-2.2 1.2-2.4 1.4-2.4 1.3-18 10.5q-13.1 7.6-26.5 14.8l-2 4 3 3q2.9-.5 5.5-1.8l5.3-3.3 1.8-1.1 4.4-2.8q5-.1 10 1l10-5.4 3.4-1.8 4.9-2.7 3-1.6 7.7-4.5v-14z"/><path fill="#060606" d="M494 140h1v21q-12.8 7.9-26 15l-5-1-3-3q-2.9.5-5.5 1.8l-5.2 3.3-1.9 1.1-4.4 2.8-1 12q-17.4 10.3-35 20.3l-14.8 8.4-5.3 3-18.1 10.4-15.7 9-10.2 5.8-6.4 3.7-4.4 2.5-2.7 1.5-2.3 1.3q-2.9 1.4-6.1 2.1l-4-3q-4.4.4-8.4 2l-1.6 1-4-1 2-4h3l2-5 1.8-1q21-11.2 41.6-23.3l17.5-10.1 3.2-2 13.3-7.6 10.2-5.8 1.6-1q14-8 27.8-16.2l9 2v-12q14.1-9 28.9-17.4 14.2-8 28.1-16.6m-39-20h2v16l-4.8 2.7-4.6 2.6-3.2 1.8L427 153l-5-2q-3.1.2-6 1-3.6 1.8-7 4l-2 1h-2v15q-12.2 7.7-24.8 14.6-14.3 8-28.5 16.3L332.5 214l-23.2 13.4-3 1.7L288 240l-1.9-1q-2.9-1.5-6.1-2h-2v-3l-4-1 1-4 6.8-3.9 9.3-5.3 19.1-11q22.6-12.7 44.8-25.8l11.4-6.6 4.5-2.7L388 164l9 1 1-12c16.2-10.2 32.8-19.6 49.5-29l2.2-1.2 2-1.1 1.8-1z"/><path fill="#080808" d="M380 66h1v14l-26.9 16-3.5 2-5 3-2.9 1.7c-2.7 1.3-2.7 1.3-5.2 2-2.5.3-2.5.3-7.5-.7l-13 8v24l-8.9 5q-24.8 14.2-49.4 28.7Q235 183.6 211 197l-5-3c-1.8.2-1.8.2-4 1q-3 1.8-6 4l-2.3-.5c-2.7-.6-2.7-.6-5.7-.5l1-4 2-1.2 9.5-5.4 1.8-1 21.8-12.8 28-16q10.5-5.7 21-12l18-10.6 3.5-2.1 5-3q1.5-.7 3-1.7l2.4-1.2h2v-20l4.4-2.4q17.4-9.3 34.5-19.3 11.4-6.7 23-13.2l1.7-1 4.7-2.5L378 67z"/><path fill="#060606" d="M474 130h1v17l-19.6 12q-1.5.7-2.8 1.7c-2.3 1.1-4.1 1.8-6.6 2.3l-4-3q-3.1.2-6 1-3.6 1.8-7 4l-2 1h-2l1 3v12q-18.6 11.3-37.6 22l-14.9 8.6-3.3 1.9-17.2 10q-22.3 13.1-45 25.5l-5-1c-1.8-1-1.8-1-3-2v-2h-6q2-3.8 5-7 4.7-3.2 9.8-5.8 3.4-1.7 6.7-3.6l3.5-1.9q8-4.4 16-9.2 11.5-6.8 23.4-13.4l25.5-14.6 3-1.7L405 176l2.2.4 2.8.6 5 1 1-14q12.3-7.6 25-14.9l9-5.2 1.9-1Q463 136.6 474 130"/><path fill="#050505" d="M316 269h5v4l-3 2-1 13-14.8 8.3-1.7 1-3.5 1.9-10.6 6-4.8 2.7-2.3 1.3-2 1.1-1.8 1-1.5.7h-2l-1 87-5-1-8-5v-89c9-5.6 9-5.6 13.5-8.1l3-1.7 6-3.3q9-5 17.5-10.9l1.8 1q4 1.7 8.2 3v-10zm-145-86 4 1 1 7-4 3-1 15-4.2 2.3-4.8 2.6-4.2 2.3q-16.6 9-32.8 18.8h-2v80c-4-1-4-1-12-6v-85l24-14 17-10 2.2.4 2.8.6 5 1v-14z"/><path fill="#080808" d="M624 422h2v11q-19.3 11.8-39 22.8-12.4 7-24.7 14.3-21.6 12.9-43.4 25l-3.2 1.8-1.6.9q-17.7 9.9-35.1 20.2l-5.3 3.1L462 528h-2v-12q14-8.3 28-16.2l36-20.8q19-11.3 38.4-22.1l20.5-11.9q16.7-9.7 33.7-18.7z"/><path fill="#070707" d="M276 101h2v16l-31.4 18.3-22.5 13.1q-15.2 9-30.6 17.8l-1.8 1-1.7 1-24 13.8q-4.3-1.5-8-4v-2h-5l1-5 12.4-7.1 2-1.1 26.8-15.2 23-13.1 13.2-7.7q11-6.1 22-12.5l1.6-1z"/><path fill="#080808" d="M531 248c1.7.3 1.7.3 4 1l5 3c2.2.7 2.2.7 4 1v2l2 1-2 1.2-36 20.8-26.6 15.4-24.1 14Q444.7 315 432 322l-9-2-13 7-1 11-6 2-2-1 1-2v-14l1.5-.9q30.3-17.2 60.5-34.8l21.9-12.7 1.6-1 16.9-9.7 7.1-4.1 3.4-2q8.4-4.4 16.1-9.8"/><path fill="#060606" d="m522 234 4.4.4 2.4.3c2.2.3 2.2.3 4.2 1.3v8l-3.3 1.6q-7.9 4.1-15.6 8.7l-6.4 3.8-1.6 1-18.7 10.8-1.7 1-29.9 17-5.8 3.3-3 1.6-15.2 8.9-1.5.9-7.1 4.3c-6.3 3.8-6.3 3.8-9.1 4.7-1.7.3-1.7.3-4.1.4l-1-1-12-1 4-7 6.8-3.9 9.3-5.3 19-10.8 35.6-20.6q25-14.7 50.3-28.4M301 112h2v12l-37.3 21.7-1.7 1-6.5 3.7L193 188l-9-2-6 4-3-1c-.6-2.8-1-5.2-1-8l1.3-.7q15-8.3 30-17 10.8-6.4 22-12.7 14.7-8.3 29.2-17 11.7-7 23.5-13.6l8 1 2-1.5 2.8-1.9 2.7-1.9z"/><path fill="#020202" d="M279 270q3.7 1.8 7 4l1 3h3l-1 5-1.4.8-6.5 3.6-2.2 1.2q-12.5 7-24.9 14.4l-1 87c-5-1-5-1-14-6v-91l32-17z"/><path fill="#030303" d="M245 251c2.7.4 4.8.9 7.2 2.2l2.1 1.4 2.1 1.3 1.6 1.1-1 3-1.4.7-6.8 3.6-2.2 1q-14.9 8-29.6 16.7l-1 86c-4-1-4-1-15-7v-84c14.7-9 14.7-9 22-13q11.2-6.1 22-13"/><path fill="#040404" d="m392 290 3 2v4l-2 .7q-5.4 2.5-10.3 5.4l-2 1.2-4.7 2.7v13l-5.3 3Q351 332.5 332 344h-2v89l-11-4-1-1v-90l29-16 13-8 9 3v-15l8.1-4.9 2.3-1.4c4.2-2.4 8-4.4 12.6-5.7"/><path fill="#040404" d="M389 319h1l1 11-2 1.1-7.7 4.3-3.3 1.9q-14.6 8.1-29 16.7l-1 90c-6-2-6-2-13-6v-92l42-24q5.6 1 11 3v-5z"/><path fill="#020202" d="m170 213 6 1c2.3 1.4 2.3 1.4 4.4 3l2 1.7 1.6 1.3-1 3-1.7 1q-18.9 10-37.3 21h-2v81c-6-2-6-2-14-7v-82z"/><path fill="#030303" d="M124 188h2v21l-5.9 3.1-5.7 3-4 2.2-5.6 3-1.7 1q-6 3.2-12.1 6.7l-1 59-9 5-4-1v-76l26-15 19.3-11.1z"/><path fill="#070707" d="m445 196 8 4v7l-2 1-21.9 12.3-1.8 1-28 16.3q-16.5 9.8-33.4 19L339 272l-2.3-1.5c-2.6-1.6-2.6-1.6-5.5-2.2l-2.2-.3-8 4v-3l-3-1 2-1q19.8-10.5 39-21.7 10.7-6.3 21.5-12.3 15.3-8.5 30.3-17.4l18.8-10.9 3.5-2 4.9-2.8 2.8-1.6z"/><path fill="#060606" d="m497 228 5 1 3 2h8v-2l2 1v4l-1.6.9q-20 10.8-39.7 22.4L456 267.4l-3.2 2-13.3 7.6-10.2 5.8-1.6 1q-14 8-27.8 16.2l-9-3 4-1-2-5-3-1q19-11.3 38.4-22.1l23.5-13.6 15.8-9 1.7-1 8-4.4q10-5.6 19.6-11.9"/><path fill="#040404" d="M265 259c2.2.5 3.8 1 5.8 2l1.2 1h6l1 4-2 1.1-42 23.9h-2v86l-6-1-5-3v-88h2v-3l2.3-1.2C245.7 270 245.7 270 265 259"/><path fill="#e7e7e7" d="M358 49c5 2 5 2 8 4v16l10-5 2 1v3l-2 1q-17.7 10-35.3 20.2-11.5 6.8-23 13.2l-2.6 1.4-2.4 1.3-2 1.1-1.7.8h-2v20l-4.7 2.6-6.4 3.6-1.7 1q-13.6 7.5-26.8 15.4-8.4 5.2-17.4 9.4l-2-2v-2l2.2-1.3 10.4-5.9 2-1 20-11.7 1.5-.9 7-4.2 2.6-1.5 2.2-1.3c2.1-1.2 2.1-1.2 7.1-3.2v-12l-5.2 3.3-3 1.9q-3.5 2.2-6.8 4.8l-8-1-10.7 6.1-3.6 2.1q-10 5.7-19.7 11.8h-2v-3l-2-1 17.4-10 2-1 15.6-9 1-17c3.7 0 6.5.2 10 1l1.5-.8 6.9-3.7 2.4-1.3L301 94l2.1-1.2 1.8-.8h2l4 4 6 1 44-25V56l-3-1-12 7h-6l1-3zm-55 48c-1.7.7-1.7.7-3.3 1.7l-1.9 1-2 1.2-1.9 1.2c-3.1 1.7-3.1 1.7-5.9 3.9v10q4.4-2.2 8.3-4.8l2.4-1.6 2.6-1.7 2.5-1.7 6.2-4.2-1-3-3-2z"/><path fill="#0f0f0f" d="M633 274q11.9 6.4 23 14v3l-2 1-21 12-3.5 1.9-5.2 3-12 7-31.6 18.3-22.2 12.8q-24.9 14.1-49.5 29l-3-1-1-3 1-4 1.6-.9q20-10.8 39.7-22.4l17.6-10.1 3.2-2 15-8.6 8.6-4.9 1.7-1 19.8-11.7q15.3-9 30.8-17.4l1-3-2.6-.7c-3.6-1.2-6.3-3.1-9.4-5.3z"/><path fill="#060606" d="m358 54 4 2v16q-22.5 13.2-45 26l-6-1c-2.4-1.6-2.4-1.6-4-3v-2l-1.5.9q-3.2 1.7-6.5 3.1c-2.1.3-3.8.2-6 0l2-4h2l1-4 1.5-.8q17-9.3 33.8-19.1Q345.6 60.9 358 54"/><path fill="#080808" d="M537 163h1v22l-10.2 6-2.9 1.7-2.8 1.7-2.6 1.5-2.5 1.1c-2.8.2-2.8.2-5 0l-4-3c-4 .7-7.2 2.6-10.7 4.6l-1.9 1-4.4 2.4c-5-.5-5-.5-7-1l-5-3v16h-1l-2-14-4 1c2.2-2.3 4.3-3.8 7-5.3l2.5-1.4 2.6-1.4q9.6-5.1 19-10.7l22.4-12.8 1.7-1 4.8-2.7 2.9-1.6z"/><path fill="#e1e1e1" d="m196 164 2 1-1 4-1.7 1-31.3 18h-2v14c-5 0-5 0-10-1l-24 14-5-2-4-1 5-3h2v-21l-16 9-3-3c2.6-3 5.7-4.7 9-6.5l1.8-1 3.7-2 5.6-3.2 3.6-2 1.7-1c2.5-1.3 4.7-2.3 7.5-3l2.1-.3 2 2-14 9 1 3q3.8-.5 7.2-2l2-1.2 2.4-1.4 2.5-1.4 4.7-2.7 2.2-1.3q2.9-1.4 6-2l6 4q6-2.3 11.4-5.5l1.8-1 5.6-3.1 3.8-2.2zm-47 21-5.9 3.4-1.7 1q-3.5 1.8-6.4 4.6v11c4.5-1.3 8-3 11.9-5.6l2.9-2 2.2-1.4v-11z"/><path fill="#e2e2e2" d="m571 225 2 1v3l-6 4h-2v10l4-1v2l2 1v2l-2.4 1.4-9 5.1-3.9 2.2q-11.4 6.5-22.7 13.3l-2-1q1.4-3.2 3.6-5.8c3.2-3 6.8-4.9 10.6-7l7.8-4.2v-18l-8 5-1 15-6-1c-2.4-1.6-2.4-1.6-4-3-3.6.7-6.3 2.2-9.4 4l-1.6 1-5 2.9-3.6 2-7 4.1-14.5 8.4-7.9 4.6h-2v-2l-4 1c2.5-2.9 5.5-4.6 8.8-6.4l1.8-1 3.6-2 9.6-5.5 1.9-1 15.4-9 2-1.2 7.9-4.9h3v-11l9 1 2.7-1.5 3.6-2 1.8-1 4.9-2.5h3v2c2.7.3 2.7.3 6 0q3.7-1.7 7-4"/><path fill="#040404" d="M105 224h1v82c-10-5-10-5-11-6v-70c8-5 8-5 10-6"/><path fill="#090909" d="M516 153h2v17l-4.5 2.4-5.9 3.2-2.9 1.6q-9.5 5.1-18.7 10.8l-1.7-1q-3.5-1.4-7.3-2l-1.8 1-8 4.4-2.8 1.6-2.7 1.5-2.5 1.4C457 196 457 196 454 197v-9l2.3-1.2q20.6-10.8 40.7-22.6l11.6-6.8 4.3-2.6z"/><path fill="#e3e3e3" d="m308 184 2 1-1 4-2 1q-17.3 9.7-34.2 19.6-11.2 6.8-22.6 13.2l-2.7 1.6-2.5 1.4-2.2 1.3-1.8.9h-2v15l-7-1q-19.2 10.7-38 22l-7-1c2.5-2.7 5.1-4.3 8.3-6.1l1.6-.9 5-2.7 6.6-3.7 1.6-.9q8.5-4.7 16.9-9.7h3v-17l14-8 4 2c3.2-.4 5.8-.9 8.7-2.3l2.6-1.6 3-1.8 3.2-1.9 3.3-1.9 6.3-3.8 10.4-6 1.6-1z"/><path fill="#e7e7e7" d="m357 222 2 1v2q-22.7 13.1-45.8 25.9-10.7 5.9-21.2 12.1l-1 11-4 1-6-4q-5.9 2.3-11.5 5.4l-1.8 1-5.8 3.1-5.7 3.1-3.6 2-8.6 4.4-2-4 1.9-1 35.1-20 1-10 17-10c5 1 5 1 6.8 2l1.2 1c2.8-.4 5-1 7.6-2.2l2.8-1.6 1.5-.9 4.9-2.7 3.3-2q7.6-4.2 15.1-8.7l2.4-1.4 4.2-2.6c2.8-1.6 5-2.8 8.2-3.7zm-59 27-5.6 3-3 1.7-2.4 1.3v3l4 1 11-6-2-4z"/><path fill="#d3d3d3" d="M360 259h3l1 4-2 1-33 19-1 13c-5-1-5-1-6.8-2l-1.2-1c-2.9.4-5 1-7.7 2.3l-2.8 1.6-1.6 1-5 2.8-6.4 3.7-1.6.9q-8.4 4.6-16.9 8.7l-2-4 1.7-1q18.9-10 37.3-21h2v-13c7.2-5.4 7.2-5.4 10-7 3.3-.7 3.3-.7 6-1l5 4c11.3-5.5 11.3-5.5 22-12"/><path fill="#fcfcfc" d="m352 462 5 1-1 167-4 2-.4-65.6-.2-30.5-.2-26.5-.1-14-.1-13.3v-11.5l-.1-2 .1-4.6z"/><path fill="#080808" d="M391 334c2.6.3 2.6.3 6 1l4.5 3c1.8 1.2 3.5 1.5 5.5 2l-1.3.7Q379.4 355.1 354 371h-2v-14q10-6.8 20.6-12.6l6-3.4 2.8-1.5z"/><path fill="#e8e8e8" d="M629 213h1v42h2q1.3 7.4 1 15l2.1.8q4.8 2 9.2 4.8l1.7 1 4 2.4-3 1v2c-4.8-1.6-8.8-4.3-13-7v5l11 6-1 4-2.1 1.2q-22.4 12.3-44.4 25.3-6 3.7-12.4 7.3l-4.2 2.5-2.9 1.7h-2v-2l-5 1c2.5-2.8 5.4-4.6 8.7-6.4l1.7-1 5.5-3 3.8-2.2 7.6-4.3 15.6-9 2.6-1.4 2.4-1.3 2-1.2 7.1-4.2z"/><path fill="#080808" d="M388 80h2v14q-17.1 11.2-35 21l-1.8-.5c-3.5-.8-6.6-1.5-10.2-1.5v-3l-2-1c2.9-3.1 5.8-5.2 9.5-7.3l1.6-1 5-2.8 3.6-2 5.3-3 15-8.9 2.2-1.3z"/><path fill="#0a0a0a" d="M417 103h2v14l-8.8 5.2-4.4 2.7Q396 130.6 386 136l-1.9-1q-2.9-1.4-6.1-2l-6 3c-3-1-4.6-2.1-7-4l2.3-1.3q23.1-12.6 46-25.7z"/><path fill="#d4d4d4" d="m363 238 6 1c-3 3.2-5.8 5.2-9.5 7.3l-1.6.8-5.3 2.9-3.6 2-16 8.7-4.5 2.4-5.5 3q-6.7 3.7-13 7.9h-2v10q-4.4-.4-8.4-2l-1.6-1-7 4 1-6 4-2 1-11 17-9c5 1 5 1 6.8 2l1.2 1c3.7-.7 6.7-2.3 10-4.2l1.7-1 3.6-2 5.4-3Q353 244.1 363 238"/><path fill="#dadada" d="m243 202 2 1-1 3-9.3 5.4-2.7 1.6-2.6 1.5-2.3 1.4C225 217 225 217 222 218v14l-5 1c-2.3-.4-2.3-.4-4-1-20.6 11.4-20.6 11.4-41 23l-2-1 1-4 11.4-6.5 3.8-2.2Q198 234.5 210 228l1-15 13-9 1.6.4q4.2 1 8.4 1.6l2.3-1.4c2.3-1.4 4-2.1 6.7-2.6"/><path fill="#070707" d="M409 88h1v15l-5.7 3.2-5.6 3-3.8 2.2-5.5 3-1.7 1-9.7 5.6-2.6-1c-1.7-.7-1.7-.7-3.4-1-3.3.3-3.3.3-6 1l-1-7 3.9-2.2 2.5-1.5 5.6-3.2 15-8.5 2.9-1.7 5.5-3.2 2.5-1.4 2.3-1.3z"/><path fill="#050505" d="M556 178h2v19l-11.8 6.7-7.2 4-2.4 1.4-2 1.1-1.6.8h-2l-4-6v-2l-4-1c1.7-3 3.3-5.6 6-8l5.4-3.3 1.6-.9 5-2.9 5-2.8 4.5-2.6z"/><path fill="#101010" d="M121 322c5.3 1.1 9.8 2.6 14.5 5.3l1.9 1 21.2 12.2 15.9 9.2 1.6.8 7.5 4.2q6.6 3.5 12.4 8.3h-2v6q-5.1-1.9-9.8-4.7l-2.8-1.6-1.4-1-8-4.6-1.7-1-19.7-11.4Q135.2 336 120 327l-1-3z"/><path fill="#0a0a0a" d="M579 189h2v14l-5 2.7-5 2.7-3.4 1.8-4.9 2.7-3 1.6-7.7 4.5q-1 0-2-.3-1.5 0-2.8-.3-1.4 0-2.7-.3l-2.5-.1-3 1v-2h-2l-1 2v-2h-3v-2l2.2-1.2q19.5-10.7 38.8-22 2.5-1.6 5-2.8"/><path fill="#090909" d="M412 492c6.2 1.7 11.5 5 17 8.1l3 1.8 6.2 3.5 7.4 4.2 3.8 2.1 1.7 1c3.8 2.2 3.8 2.2 4.9 3.3v12q-5.9-2.4-11.5-5.5l-1.8-1-4-2.2-5.8-3.2q-10.5-5.8-20.9-12.1zm187-295h3v10q-18.8 11.9-38 23l-6-1-1-2-3-2 3-5 11.7-6.5 4-2.1L584 205l5.7-3 3.5-2 1.6-1z"/><path fill="#0d0d0d" d="M317 435c2.6-.2 2.6-.2 6 0l6 3.1 1.7 1 5.2 3.1 3.5 2.1 6.7 4 9.9 5.7q7.4-2.9 14.1-7l2.5-1.4c4.8-2.6 4.8-2.6 9.4-5.6h3v2l-3 2 1 2-2 4-9.5 5.4-2.7 1.6c-6.6 3.7-6.6 3.7-10.2 4.6l-5.6.4-36-21-1-5z"/><path fill="#070707" d="M578 395q14.4 7 28.3 14.8l3 1.7q6 3.3 11.7 7.5l-3.7 2.4-2 1.4c-2.5 1.3-4.6 1.7-7.3 2.2l-9.4-5.3-3.2-1.8L578 408z"/><path fill="#d3d3d3" d="M390 297c6.8 1.1 6.8 1.1 10 2l5-2 2 3q-8.7 6-18 11l-1 14-11-2-16 9-2-2 1-3 6.9-4 2-1.2 1.8-1 1.8-1 1.5-.8h2l-1-13z"/><path fill="#0f0f0f" d="M214 375c7 1.3 12.4 4.2 18.6 7.8l4.5 2.6 4.7 2.8 9.5 5.4 1.6.9 7.4 4.1q8 4.5 15.7 9.4l-6 2 1 4-2.4-1.4-18.6-10.4q-17.7-9.8-35-20.2l-2-5z"/><path fill="#0c0c0c" d="m476 387 2 1 1 5-2.1 1.2-9.8 5.7-1.8 1-21.6 12.6q-10.2 6-20.7 11.5l-2-5 2-4 1.3-.7q17.9-9.8 35.4-20.2l5.3-3.1 2.2-1.3q3.4-2.1 7.2-3.4z"/><path fill="#ececec" d="m471 504 3 1-2 5-11 6-1 12 10-6 4 1-2 4-12 7c-4.5-.9-7-1.8-10.8-4l-1.6-1-3.4-1.8-5.2-3-3.3-1.8-3-1.7q-3.7-2.4-6.7-5.7l1-2c5.5 1.6 10.1 4.1 15 7l2.5 1.3L456 528l-1-12-9-5-1-4q5 .4 9.4 2.6l2.6 1.4c5-1.8 9.4-4.4 14-7"/><path fill="#0d0d0d" d="M270 408q6.2.8 11.8 3.3l9.2 5.2 3.3 1.9 9.7 5.6 2.8 1.6L321 434c-2 2-2 2-4 3v3q-5.1-1.9-10-4.7l-2.8-1.6-3-1.7-3-1.7Q285 422.8 272 415l-3-6zm150 10h2l1 7-3 1.7-36 21.3h-2l-1-4 4-2-1-3 16-9.3 1.6-1 4.8-2.7 1.6-1z"/><path fill="#0c0c0c" d="M606 209h1v12l-25 14-2-3v-4h-5q4.8-4 10.4-7.2l1.5-.8 4.7-2.6 6.3-3.5 2.7-1.5q2.9-1.6 5.4-3.4"/><path fill="#fbfbfb" d="m240 287 4 1-1 3-5 3-1 84-3 2v-89z"/><path fill="#ebebeb" d="m307 80 2 1v2l-10.5 6-3.6 2-5.1 2.8-1.6 1q-3.4 1.9-7.2 3.2v2l-2 1c-10 4.8-19.4 10.4-29 16l-3-2c3.5-4 7.4-6.6 12-9.2l5-2.9 3.5-2 7-4 9.6-5.4 2.8-1.7 5.2-3q7.1-4.2 14.9-6.8"/><path fill="#121212" d="M272 231h2l1 2 3 1 1 4-5.3 3-3 1.7-2.7 1.3h-3v11l-7 4-4-5h2v-13z"/><path fill="#ededed" d="m617 421 5 2q-4.7 4-10.1 6.9l-3 1.6-1.6.8-8 4.3-1.6.9q-8.4 4.5-16.5 9.5l-2 1.2-1.6 1q-2.6 1.4-5.6 1.8v-5l10.8-6.2 3.6-2.2 5.3-3 1.7-1q5.2-3 10.6-5.6l1-4h-3v-2l9 2z"/><path fill="#ebebeb" d="m445 579 4 1-2 5-2 1.1q-20.1 11.1-40 22.9l-3-1q1.2-3 3.2-5.4 3.4-2.8 7.4-5l1.6-.9 5.2-3 3.4-1.9 5.1-2.9z"/><path fill="#ededed" d="m472 302-1 4-2.4 1.4-8.7 5.2-3.8 2.2q-10.1 6-20.1 12.2h-6l1-5q9.2-5.8 18.5-11.3l3.2-2 4.7-2.7 2.8-1.7c4-1.9 7.5-2.3 11.8-2.3"/><path fill="#e9e9e9" d="m621 435 2 1-1.2 1-1.7 1.3-1.6 1.2c-1.6 1.5-1.6 1.5-2.6 3.6l-.9 1.9-1.7.9Q591.8 457.4 571 470l-3-1 1-4 2.1-1.2c25.4-13.6 25.4-13.6 49.9-28.8"/><path fill="#bfbfbf" d="m423 319 4 1 4 3-1 4 3-1 2 2-13 8h-2l1-4h-6v4l-6-1v-8z"/><path fill="#0d0d0d" d="m503 370 4 1-1 2 1 4-26 15-4-2-1-2-2-1q14.4-8.7 29-17"/><path fill="#e8e8e8" d="m403 603 2 1-1 1.8c-1.1 2.3-1.1 2.3-2 5.2l-1.8 1q-17 8.8-33.2 19l-8-2z"/><path fill="#ebebeb" d="m532 263 2 1-1 1.9-1 2.1v2l-1.3.8-6.3 3.6-2.3 1.4-13.3 8q-8.2 5-16.8 9.2l1-4 4-2-1-3 2.3-1.3q17-9.6 33.7-19.7"/><path fill="#e6e6e6" d="m401 437 4 1-2 4c-30.1 17.5-30.1 17.5-44 24l-3-1 1-2-2-1 2.1-.8c8.8-3.5 16.7-8 24.8-12.8l4-2.3z"/><path fill="#e7e7e7" d="M261 580c2.8.4 5 1 7.5 2.2l2.6 1.5q1.5.7 3 1.7l3 1.7 3 1.8 8.9 5.1 2.2 1.3 9.8 5.7-3 1v2h3l1 3c-5.9-1.6-10.8-4.6-16-7.6l-5.6-3.3-2.8-1.6-11-6.2-3.3-2-2.3-1.3-2-4z"/><path fill="#ebebeb" d="M570 447h2v5q-19.9 11.8-40 23l-3-1 1-4 2-1.1q19.3-10.6 38-21.9"/><path fill="#eaeaea" d="m410 211 3 1q-2.6 3.8-6 7-6.4 4.1-13.2 7.6l-3.5 1.9-7 3.7L369 240l-4-3 2.3-1.3q21.5-12.1 42.7-24.7"/><path fill="#101010" d="m187 195 2 1 3 1 2 3h-3v18l-5 3c-2.5-1.2-4-2-6-4h2v-19z"/><path fill="#e7e7e7" d="M571 339h2l1 4q-19.9 11.8-40 23l-4-1 1-3 1.6-1z"/><path fill="#e9e9e9" d="M412 487c5 1.8 9.4 4.4 14 7v4q-3.9-.5-7.5-2.2L412 492v12l5 2 5.8 3.1 3 1.7 2.2 1.2-2 4-7.9-3.9-2.2-1-2.2-1.2-2-1c-1.7-.9-1.7-.9-3.7-2.9v-17z"/><path fill="#0f0f0f" d="m542 222 8 2 6-2-1 3 2 2-15 8-9-2v3l-5-1v-5z"/><path fill="#121212" d="M149 185h3v11l-6.2 4-1.8 1-1.8 1.2-1.6 1c-1.6.8-1.6.8-5.6 1.8v-11q6.3-5.5 14-9"/><path fill="#e8e8e8" d="M566 467h2v2l2 1q-10.5 7-21.6 13.1L545 485l-6.3 3.5-9.8 5.5-4-1c3.4-3.6 6.5-6.1 10.8-8.6l1.7-.9 5.2-3 5.1-2.9 3.4-1.9q7.5-4.2 14.8-8.7"/><path fill="#151515" d="M71 275h1v12l-9-4 1 4 6 4 1 3-2 3q-5.5-2-10.3-5.1l-2.7-1.7-2-1.2-1-4 9-5 2.5-1.4 2.5-1.4 2.2-1.3z"/><path fill="#e8e8e8" d="M648 460v4h2l-2 4q-15.2 10-31 19l-1-3 1-1-2-2 2.5-1.4 9.2-5.2 4-2.2 5.7-3.2 1.8-1c3.9-2.2 6.7-4.7 9.8-8"/><path fill="#040404" d="M346 125h3v16c-7.6 4-7.6 4-10 5h-2v-17l9-2z"/><path fill="#151515" d="m308 253 2 1-1 2h-3l-1 4 2 2-3.9 2-2.2 1.1-1.9.9h-2v11l-7 4-1-3-3-1 1-3h3l1-11q8.4-5.1 17-10"/><path fill="#ebebeb" d="m339 145 2 1-2 5-2.2 1.3-8.4 4.8-3.5 2q-11.1 6.4-21.9 12.9l-3-1 1-4 2.1-1.2 8-4.4 3.3-1.9c13-6.3 13-6.3 24.6-14.5"/><path fill="#131313" d="M553 232h1v19l-6 4h-4v-17z"/><path fill="#fdfdfd" d="M658 287h1q.1 38-1 76l-2 1v-69l-2-1q1.7-3.7 4-7"/><path fill="#131313" d="M303 97c2.2.4 3.8 1 5.8 2l1.2 1v2l-2.3 1.5q-9 5.9-17.7 12.5h-2v-10z"/><path fill="#ececec" d="M315 442q3.6 0 7 1 6 2.8 11.4 6.3l3 1.7q8.4 4.8 16.6 10l-2 4q-5-1.9-9.6-4.7l-16.5-9.7-3-1.6-6.9-4z"/><path fill="#f8f8f8" d="M657 395h2v54l-5 2c-.1-6.6-.1-6.6 1-10l.2-4.3v-5.5l.1-3 .3-12.4.1-9v-3l.1-2.6V399l.2-1.9z"/><path fill="#0f0f0f" d="M83 300c3 .3 5.3.7 8 2l6.3 3.5 4.2 2.5 1.9 1 3.6 2 1 7q-3.2-.1-6-1-5-2.6-9.9-5.6l-2.6-1.5L83 306l-1-3z"/><path fill="#e9e9e9" d="m525 352 2 1-1 2h2v2l-1.8 1c-16.2 8.8-16.2 8.8-32.2 18l-3-4 2-1.2 7.7-4.5 3.3-1.9q10.5-6 21-12.4m-337 15c3.7.7 6.8 2.4 10.1 4.2l1.8 1 3.7 2 5.6 3 3.5 2 1.7 1c3.8 2.1 6.6 4.6 9.6 7.8l-1 2c-8-2.9-15.2-6.8-22.5-11.2l-4.9-2.9-4.3-2.6-4.3-2.3z"/><path fill="#ebebeb" d="M80 306q3.6.2 7 1 4.3 2 8.3 4.7l4.4 2.7 2.2 1.4q6.5 3.8 13.1 7.2l-1 5q-7.7-3.2-14.8-7.4l-4.7-2.6q-8-4.6-15.5-10z"/><path fill="#121212" d="m152 172 2 1v2l4 2-2 1-21 12-5-1v-4l7-4.2 2-1.2z"/><path fill="#141414" d="m296 239 2 1-3 3 5 1q-3.3 2.3-6.8 4.2l-2.2 1.2-2.2 1.2-2.3 1.3-5.5 3.1-1 10-3-2h-5l2-2 1-9z"/><path fill="#ebebeb" d="m440 276 2 1-1 4-11.6 6.7-4 2.2-5.7 3.3-1.8 1q-5.3 3-10.9 5.8l-2-4 10.6-6.1 3.6-2.1z"/><path fill="#ededed" d="m501 487 4 1-3 5-2 1-7.1 4-4.6 2.5-3 1.6-2.7 1.5-7.6 4.4-3-1 1-4 11-6.4 3.7-2.1 5.4-3.1 1.7-1z"/><path fill="#e8e8e8" d="m409 335 1 4-2 2 2 2-2.3 1.3-8.5 5-3.7 2-5.3 3.1-1.7 1-9.5 5.6h-3l1-5 2.5-1.4 9.3-5.3 4-2.3 5.8-3.3 1.8-1q3.9-2.2 7.6-4.7z"/><path fill="#929292" d="M49 283h1v163h-1z"/><path fill="#ebebeb" d="m596 226 3 1 1 3-1.3.7q-13.5 7.4-26.7 15.3l-4-2 1-3 2.2-1.2 7.9-4.2 3.4-1.9 5-2.7 3-1.6q2.8-1.5 5.5-3.4"/><path fill="#e9e9e9" d="M144 341q5.7 2.1 11 5.3l1.6.9 5.2 3 3.6 2 8.6 4.8 1 5h-3c-1.8-.8-1.8-.8-3.8-2l-2.3-1.2-2.4-1.4-2.4-1.3q-9.3-5.2-18.1-11.1z"/><path fill="#e8e8e8" d="M494 285h3v2l-4 3-1 4-7.7 4.4-2.3 1.2-2.1 1.2-2 1.1-5.9 3.1v-3l-7 1q5-4.2 10.7-7.5l1.6-.9 5-2.9 3.4-2z"/><path fill="#e9e9e9" d="m275 159 2 1 2 3-11.7 6.7-4 2.3-5.7 3.3-1.8 1q-4.7 2.8-9.8 4.7v-2l-3-1 2.3-1.3 8.5-4.9 3.6-2 5.3-3.1 1.7-1q5.4-3 10.6-6.7"/><path fill="#2c2c2c" d="M660 286h1v154h-1z"/><path fill="#585858" d="m54 294 2 1-1 151h-1z"/><path fill="#070707" d="M573 228h7l2 4-2 4-6.4 3.5-1.8 1-4.8 2.5h-2v-10z"/><path fill="#e8e8e8" d="M221 556q5.3 2 10 4.8l2.9 1.6 3 1.7 2.9 1.7 7.2 4.2-1 4q-3-.2-6-1-3.9-1.9-7.3-4.2l-4-2.5-1.9-1.2q-5.3-3.2-10.8-6.1l2-1c2-.8 2-.8 3-2"/><path fill="#eaeaea" d="M469 565h5l-1 3h-2v3l-22 13h-2l1-4-1-2z"/><path fill="#eee" d="m622 416 6 1 2 2v17l-12 7h-2l2-4q3.4-3.1 7-6l1-11-5 1-2-1 2-5z"/><path fill="#d9d9d9" d="M654 296h2v145h-1z"/><path fill="#ebebeb" d="m489 373 4 1-2 4-1.3.7c-11.5 6.4-11.5 6.4-22.7 13.3h-2v-2l-4-1 2-1.1 7.6-4.3 3.2-1.8 4.7-2.7 2.8-1.6q4-2.2 7.7-4.5"/><path fill="#e7e7e7" d="m619 311 5 1-1 3-10.5 5.9-3.5 2-5.1 2.8-1.6 1q-4.1 2.3-8.3 4.3l-1-5 2-1.2 7.7-4.2 3.2-1.9 4.8-2.7 2.8-1.6q2.9-1.5 5.5-3.4"/><path fill="#131313" d="M363 114h2v3l2 1-1 2 2 1-11 6-11-2v2l-3 2-4-1 9.3-5.5 3.1-1.9 4.6-2.7 2.8-1.6z"/><path fill="#efefef" d="M577 391q3.5.4 6.7 1.8 3 1.6 5.6 3.3l2 1.1 4.7 2.8v3q-4.8-.4-9.2-2.4l-3.2-1.7-5.6-2.9v14l-4 1v-18z"/><path fill="#eaeaea" d="M168 158h4l-1 4c-18.2 11-18.2 11-27 15l-4-3 2.2-1.3 8.3-4.6 3.6-2 5.1-2.8 1.6-1q3.8-2 7.2-4.3"/><path fill="#f9f9f9" d="M658 318h1v77h-2l-1 2v-33l1-1z"/><path fill="#ededed" d="m53 288 2.5 1.4Q69.2 297.3 83 305l-4 3-7.6-3.7-2.1-1q-6.2-3-11.8-7.3c-1.6-1.2-1.6-1.2-4.5-2z"/><path fill="#e9e9e9" d="m528 471 2 1 1 4-10.1 5.8-3 1.7q-6.7 4-13.9 7.5l-1-5z"/><path fill="#e8e8e8" d="M507 543h2v6l-8.2 4.9-2.3 1.4q-5.5 3.5-11.5 5.7l-2-5zm-401-52c2.8.4 5 1 7.6 2.2l2.7 1.5 3 1.7q1.5.7 3 1.7l3.1 1.7 7.6 4.2-1.4 1.4c-1.7 1.5-1.7 1.5-2.6 3.6l-8.2-4.8-2.3-1.4L107 496z"/><path fill="#ebebeb" d="m390 430 3 1 1 3-24 14h-2v-5z"/><path fill="#e6e6e6" d="m470 397 3 1c-1.2 2.4-2.2 4-4 6q-5.1 3.4-10.6 6.3l-3 1.6c-6.2 3.5-6.2 3.5-9.4 5.1v-3l-3-1 2.2-1.3 7.9-4.6 3.4-2 5-2.8 3-1.8zM83 476q12.6 6.8 25 14l-1 5q-6.7-2.7-13-6.4l-2.1-1.1Q86 484.2 81 480h3z"/><path fill="#e8e8e8" d="M441 414c2.8-.2 2.8-.2 5 0l-1 4-23 13-3-1 1-4 10.2-6 2.9-1.7 2.8-1.7 2.6-1.5z"/><path fill="#1d1d1d" d="M329 115h2v3l2 1-4 3h-2v14l-5-1-1-1v-15z"/><path fill="#e2e2e2" d="M596 400q14.4 6.9 28 15l-3 3q-5.4-2.1-10.3-4.8l-3-1.6-3-1.7-3.1-1.7-7.6-4.2 2-1z"/><path fill="#ebebeb" d="M647 280h5l8 5v77h-1l-1-74-2 2-2.2-2.4c-1.7-1.7-3-2.7-5.1-4l-1.7-.6z"/><path fill="#eaeaea" d="M267 413c2.8.4 5 1 7.5 2.2l2.6 1.5 2.8 1.7 3 1.7 2.9 1.7 7.2 4.2v5q-7.4-2.9-14-6.9l-2.5-1.3c-3.3-1.8-6.2-3.5-9-6.1L266 415z"/><path fill="#0f0f0f" d="m398 305 2 1-2 3 7 1q-5.8 4.4-12 8l-1 11h-1l-2-9h-1v-9z"/><path fill="#e6e6e6" d="M143 511c5 1.8 9.6 4.5 14.3 7.1l2.5 1.4 6.2 3.5-3 1v3c-5.5-1.5-10-4.2-14.9-7.1l-2.3-1.4-5.8-3.5z"/><path fill="#eaeaea" d="m462.8 389.9 2.2.1v3l-24 14-2-4c3.4-3.7 7.5-5.8 11.9-8.2l2.4-1.4 2.4-1.3 2.1-1.2c2.2-.9 2.2-.9 5-1"/><path fill="#ececec" d="M481 274h2l-1 4-25 14-2-2 1-3 8.6-4.8 2.4-1.4q6.8-3.8 14-6.8"/><path fill="#e8e8e8" d="m247 113 2 1-1 4-2.8 1.6Q235.4 125 226 131h-2v-3l-2-1z"/><path fill="#ececec" d="m269 187 1 2h-2v3l-22 13h-2l-1-2-2-1 10-6 3.4-2 5-2.8 3-1.8c2.2-1.2 4-2 6.6-2.4"/><path fill="#e9e9e9" d="M292 427c6.2 1.6 11.4 5 16.9 8.1l3 1.7 7.1 4.2-4 1v2c-5-1.7-9.3-4.4-13.8-7.1l-2.4-1.4-5.8-3.5zm219.3-52.1 1.7.1-1 4-21 12-4-2c2.4-2.8 5-4.7 8.2-6.6l4.8-2.6 2.4-1.4 2.4-1.4 2.2-1.1c2-.9 2-.9 4.3-1"/><path fill="#eaeaea" d="m87 206 1 3-11 7-1 10-2-2-1 16h-1v-27c10-6 10-6 15-7"/><path fill="#e5e5e5" d="m182 533 7 3.8 2 1q6.6 3.4 13 7.2l-4 1 1 3c-5.4-1.5-9.7-4.1-14.4-7.1l-2.2-1.4-5.4-3.5 3-1z"/><path fill="#ebebeb" d="M433 217h7l-1 3-21 12-4-1 2-4z"/><path fill="#e8e8e8" d="m378 208 2 1v4l-19 11-4-1h-3c4.5-4 9.6-6.8 14.8-9.7l2.7-1.6z"/><path fill="#e6e6e6" d="M315 610q7 2.7 13.3 6.6l2.3 1.3 5.4 3.1-2 1v4q-6.5-2.5-12.3-6.1l-2-1.2-4.7-2.7 1-2z"/><path fill="#e9e9e9" d="m493 509 4 1h-2l-1 4-20 12-2-4c4.1-3.5 8.5-6.1 13.3-8.7l2.3-1.3z"/><path fill="#e8e8e8" d="m426 244 3 1-1 4-21 12-3-4z"/><path fill="#eaeaea" d="M553 517h3v2l-2 2v2l-17 10-1-3-2-1h3v-3l7.8-4.5 2.2-1.3 2.2-1.2 2-1.2z"/><path fill="#ededed" d="M613 482h5l-3 6-6.8 4-2 1.2-1.8 1-1.8 1-1.6.8h-3l-1-3c3.1-3.4 6.3-5.5 10.3-7.7l1.6-1z"/><path fill="#ececec" d="m547 340 2 1-2 5-18 10-3-1 1-4zm-134 78 2 1-2 4-17 10-4-2v-2l8.3-5 2.3-1.4 2.3-1.3 2-1.3q2.9-1.4 6.1-2"/><path fill="#ebebeb" d="M200 546h6l15 9-1 3h-6l-13-8z"/><path fill="#e9e9e9" d="m358 328 3 1-3 5-20 11-1-4c4.1-3.5 8.5-6.1 13.3-8.7l2.3-1.3z"/><path fill="#fbfbfb" d="M73 221c2 3 2 3 3 5l.1 4v22.6L76 267h-1l-1-11h-1z"/><path fill="#e8e8e8" d="m105 194 4 1-2 4-18 10-2-2-3-1z"/><path fill="#ebebeb" d="M294 148h6l-2 4-17 10-5-1 1-3z"/><path fill="#e7e7e7" d="m456 247 2 1-1 1 2 2-22 13h-2l2-6z"/><path fill="#eaeaea" d="M203 138h2v2l3 1-21 12-3-2 1-3 8.9-5 2.5-1.4 2.5-1.4 2.2-1.3zm381 361 4 1-2 5-5.7 3-1.6.9-4.7 2.1c-2.9.2-2.9.2-5 0l-1-3z"/><path fill="#141414" d="M107 312c12.7 6.2 12.7 6.2 18 10l-4 1-1 3q-7.3-2.9-14-7l2-1zm417-103 4 4c-2.2 2.4-4.4 4-7.2 5.7l-2.2 1.3-1.6 1-1 7h-1v-8l-6-1c2.6-3 5.8-4.8 9.2-6.7l1.7-1z"/><path fill="#ececec" d="m399 196 2 1-1 4-8.3 5-2.4 1.4-2.3 1.3-2.1 1.3c-1.9 1-1.9 1-4.9 2l-1-3c3-3.4 6.2-5.4 10-7.6l2.3-1.2 2.2-1.2z"/><path fill="#e9e9e9" d="M592 327h2l-1 5-17 10h-3l1-5 8.9-5 2.5-1.4 2.5-1.4 2.2-1.3zM339 60l5 2q-4 3.2-8.5 5.7l-2.6 1.5-2.6 1.5-2.7 1.5L321 76h-2l1-5z"/><path fill="#e8e8e8" d="M334 622c2.9.4 5 1 7.6 2.4l2.5 1.6c2.7 1.7 4.9 3 7.9 4l-1 4-3 1-14-8z"/><path fill="#373737" d="M330 344h1v91l-6-3 4-1z"/><path fill="#121212" d="m531 216 8 1-1 4-10 6-4-1-2-4z"/><path fill="#eaeaea" d="M163 524q3 .3 6 1 3.5 1.9 6.9 4l1.8 1.2 4.3 2.8v3c-2.6 0-4.5-.3-7-1q-6.1-3.1-12-7z"/><path fill="#e7e7e7" d="m566 509 8 1v2l-18 10-3-1 1-2h2l-1-3z"/><path fill="#161616" d="m70 291 5.8 2.8 1.7.8c2.4 1.2 4.4 2.3 6.4 4.1L85 300h-2v5q-7.3-2.9-14-7z"/><path fill="#eee" d="m123 211 1 3 3 1c-4.9 3.3-9.6 6.5-15 9l-2-1 .5-1.8c.6-2.3.6-2.3.5-5.2q3-1.7 6-3c3.4-.2 3.4-.2 6 0z"/><path fill="#111" d="m524 197 3 1-3 4 3 2-10 6c-5-2-5-2-8-4z"/><path fill="#e7e7e7" d="M426 495q7 2.7 13.3 6.6l2.3 1.3 5.4 3.1-2 1 1 3q-7-2.7-13.3-6.6l-2.3-1.3-5.4-3.1z"/><path fill="#eaeaea" d="m58 458 2 2q5.5 5.5 12 10v3h-5l-4.3-3.2-2.4-1.9q-3.1-2.6-5.3-5.9l1-3z"/><path fill="#e9e9e9" d="m395 239 4 1c-1.7 2.5-3.3 4.5-5.7 6.3l-6 3.5-2.2 1.2-5.1 3h-2v-3l-2-1 1.6-.9 7.3-4 2.6-1.5 2.5-1.3 2.2-1.3c1.8-.9 1.8-.9 2.8-2"/><path fill="#e6e6e6" d="m529 363 2 1 2 3-19 11-1-3-2-1 1.3-.8 6-3.6 2.1-1.2 2-1.2 1.9-1.1z"/><path fill="#202020" d="M312 337h1v87l-4-2 3-1z"/><path fill="#101010" d="m511 218 1 2h3v8h2v5h-2l-2-4v2l-8 1 3-1v-12z"/><path fill="#202020" d="M222 283h2v2h-2v87h-1v-88z"/><path fill="#e8e8e8" d="m476 255 2 1-2 3v2l-17 10-2-4q5.8-4.8 12.3-8.2l2-1.2z"/><path fill="#ececec" d="M232 146v3l-20 11-2-2 1-3 6.8-4 1.9-1 1.8-1.2 1.8-1c3-1.4 5.4-1.8 8.7-1.8"/><path fill="#0f0f0f" d="M654 353h1v91h-1z"/><path fill="#3b3b3b" d="M233 291h1v88l-3-1 2-1z"/><path fill="#dcdcdc" d="m274 311 2 1-3 1v85h-1v-86z"/><path fill="#e6e6e6" d="m638 300 6 2q-5.3 4-11.2 7.2l-2 1.1-4.8 2.7-5-2q5.3-4.4 11.3-7.7l1.7-1zm-224-72 2 1v4l-19 11-2-2h3l-1-4z"/><path fill="#e5e5e5" d="M247 571q5.6 2.2 10.8 5.1l3 1.7 2.2 1.2-3 3 1 2q-5.9-2.3-11.3-5.6l-1.7-1-4-2.4 2-1z"/><path fill="#e6e6e6" d="m486 388 4 2v2l-8.9 5-2.5 1.4-2.5 1.3-2.2 1.3-3.9 2q.9-3.6 2-7z"/><path fill="#777" d="M276 315h1v89h-1z"/><path fill="#212121" d="M253 302h1v88l-2-1z"/><path fill="#101010" d="M238 293h1v89h-1z"/><path fill="#d9d9d9" d="M257 304h1v89h-1z"/><path fill="#131313" d="M295 90h2v2l-2 2 2 3-9 5c-5-1-5-1-7-2v-2l6.9-4 2-1.2 1.8-1 1.8-1z"/><path fill="#2a2a2a" d="M317 339h1v88h-1z"/><path fill="#2f2f2f" d="M216 282h1v87l-2-1z"/><path fill="#e7e7e7" d="M535 527h2l-2 7-8 5-9-1c2.3-2.3 3.6-3.5 6.3-5l1.8-1.1 2-1q.9-.7 1.9-1.2z"/><path fill="#464646" d="M356 466h1v87h-1z"/><path fill="#202020" d="M351 465h1v87h-1z"/><path fill="#0c0c0c" d="M194 363c4.2.6 7.3 2 11 4l1 4-2 3c-2.2-.3-2.2-.3-5-1l-5-3-2-5h2z"/><path fill="#eee" d="M114 324c4.5 1.4 8.3 3.2 12.4 5.6l1.6 1 4 2.4-1 3c-3.3-.4-6-1-9-2.4l-2.9-1.7-2.9-1.6-2.2-1.3-1-4z"/><path fill="#ebebeb" d="M220 128h4v4l-6.7 4-1.9 1.2q-2.6 1.6-5.4 2.8c-3 .3-3 .3-5 0v-3zm99 71 2 1-1 4-15 9h-2v-5zm-19-31 2 1-1 4-16 9-4-1c3.7-4 7.5-6.7 12.3-9.3l2-1.1z"/><path fill="#ececec" d="M298 602c3.3.4 6 1 9 2.4l2.9 1.7 2.9 1.6 2.2 1.3 2 6c-3-.4-5-1-7.7-2.4l-2.6-1.7-2.7-1.6-2-1.3-1-4h-3z"/><path fill="#4c4c4c" d="M291 328h1v84l-2-1z"/><path fill="#dedede" d="M659 362h1v84h-1z"/><path fill="#777" d="M110 225h1v84h-1z"/><path fill="#fbfbfb" d="M631 212h1v43h-2v-23.4l-.1-8.4v-7.4l.1-1.8z"/><path fill="#121212" d="m205 368 14 7-4 1v5c-4.3-1.6-8-3.7-12-6l1-2.4 1-2.6z"/><path fill="#d7d7d7" d="M200 277h1v83h-1z"/><path fill="silver" d="M142 245h1v82l-2-1z"/><path fill="#383838" d="M196 275h1v82l-2-1z"/><path fill="#e7e7e7" d="M483 557h3l1 4c-9.4 6.3-9.4 6.3-14 9h-2v-2h2v-2l-2-2z"/><path fill="#d3d3d3" d="M179 267h1v81l-2-1z"/><path fill="#ebebeb" d="M455 267h3l-1 5-14 8-3-1 1-4 6.8-4 2-1.2 1.8-1 1.8-1z"/><path fill="#767676" d="M123 235h1v81l-2-1z"/><path fill="#1c1c1c" d="M628 213h1v80h-1v-78l-2-1z"/><path fill="#8f8f8f" d="M106 224h1v82h-1z"/><path fill="#ebebeb" d="M518.5 537.7q3.3 0 6.5.3v2l-6.9 4-2 1.2-1.8 1-1.8 1-1.5.8h-2l-1-3 1-3c3-2.2 5.7-3.9 9.5-4.3"/><path fill="#e9e9e9" d="m653 448 2 2 4-1q-1.3 6-4.3 11.2L651 465l-6 1 1.8-2.8c2.7-4.8 4.4-10 6.2-15.2"/><path fill="#ededed" d="M236 395q3.5.4 6.7 1.8 3 1.6 5.6 3.3l2 1.1 4.7 2.8-1 2c-2.6.2-2.6.2-6 0-3-1.3-3-1.3-5.9-3l-2.9-1.7-2.2-1.3-2-4z"/><path fill="#d2d2d2" d="M160 257h1v80l-2-1z"/><path fill="#202020" d="M183 269h1v81h-1z"/><path fill="#2f2f2f" d="M146 248h1v81h-1z"/><path fill="#e7e7e7" d="m526 490 2 1-2 2 2 2-15 8-4-1 1-3z"/><path fill="#1f1f1f" d="M159 257h1v79l-2-1z"/><path fill="#444" d="M356 553h1l1 78h-2z"/><path fill="#e2e2e2" d="m418 427 2 1v4l-15 9-2-4c2.6-3 5.8-4.8 9.2-6.7l1.7-1z"/><path fill="#e8e8e8" d="m426 409 2 1 1 4-6.9 4-2 1.2-1.8 1-1.8 1-1.5.8h-2v-3l-2-1z"/><path fill="#333" d="M351 552h1v78h-1z"/><path fill="#1c1c1c" d="m476 189 5 1q-2.7 3.1-6.4 5l-3.8 2.2-2 1.1-4.8 2.7-4-1v-2z"/><path fill="#0f0f0f" d="M271 326h1v75l-3-2h2z"/><path fill="#eee" d="m653 291 4 1-2 2 1 2-5.1 3-3 1.7-2.9 1.3c-3.4.2-3.4.2-6 0l1-3z"/><path fill="#e4e4e4" d="M254 405c3.7.7 6.5 2.3 9.8 4l3 1.7 2.2 1.3-2 4q-5.9-2.3-11.3-5.6l-1.7-1-4-2.4z"/><path fill="#5a5a5a" d="M76 216h1v74h-1z"/><path fill="#151515" d="m505 198 4 1 1 3-14 8 1-4v-1l-4-1z"/><path fill="#7e7e7e" d="M353 375h1v73h-1z"/><path fill="#e7e7e7" d="M589 415q3.9.5 7.5 2.2l2.3 1.4 2.4 1.3 1.8 1.1-1 3h3l-1 3-15-8z"/><path fill="#e1e1e1" d="M577 396h1v12l5 2 4.3 2.1 2.1 1.1 1.6.8-4 4-11-6 1-3z"/><path fill="#f2f2f2" d="m420 330 3 1-2 2-1 4-8 5h-5l1-1c1-1.9 1-1.9 1.4-3.8l.6-5.2 1 4h4v-4z"/><path fill="#eaeaea" d="M374 251h4v4l-12 7-3-1-1-3z"/><path fill="#181818" d="m298 249 4 2v2l-11 6-4-1v-3z"/><path fill="#121212" d="M507 207h5l3 2v2l-8 4-6-1v-3z"/><path fill="#e4e4e4" d="m507 501 5 2c-3.6 3-7 5.2-11.3 7.3l-1.7.8-4 1.9v-5z"/><path fill="#ececec" d="m376 357 2 1-2 5q-4.4 2.7-9 5c-2.2.4-3.8.3-6 0l1-3z"/><path fill="#e1e1e1" d="M237 294h1v70h-1z"/><path fill="#ebebeb" d="M558 333h3v2l2 1c-8.6 6-8.6 6-12.6 7.4l-2.4.6v-5z"/><path fill="#4b4b4b" d="M94 230h1v70h-1z"/><path fill="#151515" d="m340 108 2 1 2 5-11 5-2-1v-4z"/><path fill="#e7e7e7" d="m596 492 2 1v3l2 1-13 7-1-3 1-4z"/><path fill="#e6e6e6" d="m223 386 14 8-1 3 1 2c-4-1.4-7.3-3.3-10.8-5.6l-1.5-1-3.7-2.4 2-2z"/><path fill="#a6a6a6" d="M348 377h1v68l-2-1z"/><path fill="#e9e9e9" d="m184 149 2 1-1 4-12 7-1-3-2-1z"/><path fill="#f0f0f0" d="m363 629 3 1q-2.4 3-5.6 5l-4.4 2-6-1 2-4q2.7-1.7 5.7-2.4z"/><path fill="#ebebeb" d="M130 505q3 .2 6 1 3.6 1.8 7 4l-1 4q-3.6-.3-6.9-2l-5.1-3-1-3z"/><path fill="#ededed" d="M576 326v3l-12 7-3-1-1-3 4.3-2.4 2.3-1.4c3.3-1.7 5.7-2.2 9.4-2.2"/><path fill="#e9e9e9" d="m209 156 3 1-1 4-12 7-3-1 1-4z"/><path fill="#cfcfcf" d="M295 348h1v67h-1z"/><path fill="#e7e7e7" d="M131 334c2 .2 2 .2 5 1q4.2 2.3 8 5l-1 5-15-8 3-1z"/><path fill="#e3e3e3" d="M163 272h1v67h-1z"/><path fill="#e5e5e5" d="m282 178 2 1-2 2v3l-12 7h-2v-2l-1-1c2.6-3 5.8-4.8 9.2-6.7l1.7-1z"/><path fill="#eaeaea" d="M240 138h4v4l-10 6-7-1c2.4-2.7 5-4.4 8.2-6.2l2.7-1.6z"/><path fill="#b4b4b4" d="M127 253h1v66h-1z"/><path fill="#e5e5e5" d="m318 72 3 1c-1 2.3-1 2.3-3 5q-3.4 2.3-7 4l-4-1-6 2c1.9-2.2 3.9-3.6 6.4-5l3.8-2.2 2-1.1z"/><path fill="#e9e9e9" d="m72 470 10 5 2 5q-3.6-.2-7-1-4.2-2.3-8-5l3-1z"/><path fill="#ededed" d="m437 403 4 1-2 4-9 5-3-1 1-4z"/><path fill="#d6d6d6" d="M334 347h1v65h-1z"/><path fill="#efefef" d="M174 359c3 .4 5 1 7.7 2.4l2.6 1.7 2.7 1.6 2 1.3-2 4-12-6z"/></mask></defs><g fill="#2474d4" stroke="#2474d4" stroke-width="1.5" stroke-linejoin="round" vector-effect="non-scaling-stroke" mask="url(#a)"><path d="M365.4 51c2.5 3 2 6 1.8 9.7v2.1L367 68l2.7-1.6 3.5-2 1.7-1c3-1.7 4.5-2.5 8-2.1l2.1.7v6l2.2.4c2.8.6 2.8.6 6.8 2.6l1 19 5-3h2l1-7c3.2-1.2 5.6-1.2 8.7 0 1.9 1 1.9 1 3.3 3 1.2 4.9 1 10 1 15l3-.6 3-.4c1 1 1 1 1.1 4.4v6.3l-.1 5.3 6-2V96c7.5 0 7.5 0 10.8 2.4 2.6 3.5 2 8.2 2 12.4l.1 3 .1 7.2 1.8-1c2.2-1 2.2-1 5.2-1v-2.1l-.1-2.8-.1-2.7c.2-2.4.2-2.4 2.2-4.4 4 .3 7 1.4 10 4q.8 5 .3 10.2v2.8l-.3 7 6-2 1-10c3.3-1.2 5.5-1.1 8.6.3 2.5 1.5 3.3 2.2 4 5q.4 4.2.3 8.5v3l.1 7.2c2.6-1.1 2.6-1.1 5-3 .7-2.4.7-2.4.7-5 .1-4.8.1-4.8 2.3-7 4 .3 6.8 1.8 10 4 1.3 2.6 1.1 4.4 1.1 7.2v9.7l-.1 8.1 1.5-.9 1.9-1.1 1.9-1.1c1.7-.9 1.7-.9 3.7-.9v-10c2-1.3 2-1.3 5-2 3.3 1.4 6 3.1 9 5v19c6-2.1 6-2.1 6.8-5v-2.1c.2-3.9.2-3.9 1.2-4.9 4-.6 7 .4 10.5 2.4 3.3 3.5 2.5 8.8 2.4 13.4v3.2l.1 8 1.2-.9 1.7-1.1 1.6-1.1c1.5-.9 1.5-.9 3.5-.9v-4.4l-.1-2.5c.1-2.1.1-2.1 1.1-3.1h5l1 3c2 .7 2 .7 4 1q1.3 7 1 14.4v7.6l1.5-.9 1.9-1.1 1.9-1.1c1.7-.9 1.7-.9 3.7-.9v-9c2-.7 2-.7 5-1l7 4v17l8-4.7c4.4-2.5 7-2.5 12-1.3 1.4 1.1 1.4 1.1 2 3v7h5v13c3.3-1 3.3-1 6-3q1.2-5 1-10c5.8 1 10.8 2.7 15 7 1 3.8.8 7.2.5 11.1l-.3 5.7q-.3 8.1-1 16.2c-1.6 14.4-1.6 14.4 3 27.4 6 5.9 13.8 9.4 21.4 12.6 2.4 1 2.4 1 3.4 2l.1 6v13l.1 12.6v60.9l.1 21.9v30c.2 12.8-.9 25.9-9.4 36.2-9.3 8.4-20.9 14.9-31.8 20.7q-18.7 10.3-36.9 21.4-8 4.9-16.4 9.3-15.5 8.3-30.7 17.3-9.3 5.6-18.7 11l-1.7 1-36.2 20.7-16.6 9.6-6.9 4.2-1.8 1q-13.2 8-26.9 15.2-7.6 4-14.8 8.5l-12.1 7-27.1 15.7q-3 1.6-5.7 3.3l-5 3-2.4 1.5-2 1.2c-4.1 1.5-7.3.2-11.1-1.6l-3-1.7-1.7-1-5.4-3.1-3.8-2.2-25-14.8-20.9-12q-18.6-10.4-37-21.2l-4.6-2.6-3.1-1.8q-10.7-6.4-21.5-12.4-14.7-8.4-29.1-17-16-9.4-32.2-18.5l-24.2-13.8-8-4.5L93 489l-3.3-2-9-5.2-3.6-2c-23.8-14-23.8-14-27.7-27.9q-.8-4.5-.8-9v-2.1l-.1-6.9V429q-.4-22.4-.5-44.8l-.4-33-.3-23.3-.2-14c-.6-28.1-.6-28.1 3.6-34.4 3.9-3.7 8.2-5.7 13.3-7q3.2-.9 6-2.5l-.1-2c-2.5-50.6-2.5-50.6 4.7-60.2 5.9-6 14.1-8.6 22-10.8q6.3-2 11.7-5.7l3.7-2q19.5-11 38.9-22.2 13-7.6 26.2-15 13-7.2 25.9-14.9l21.2-12q13.6-7.6 27.1-15.6l29.4-17 1.8-1q10.2-6 20.6-11.6 10.4-5.8 20.6-12l13.7-8 4.5-2.7 7.4-4.4 2.1-1.2c5.2-3 8.4-3.2 14-.6m-9.7 4.8-2.6 1.6-3 1.6-3 1.9-3.1 1.8-6.2 3.7-8.2 4.7q-15 8.5-29.9 17.3l-5 3q-3 1.6-5.7 3.3l-3 1.7-2 1.6v3c2.9 1.3 2.9 1.3 5.2.1l2.5-1.4 2.7-1.5 2.8-1.6L300 95l7-4 1 3q2.9 2.9 7 4c3.1-.7 5.6-2.2 8.3-3.9l2.3-1.3L332 89l2.7-1.6 4.4-2.7q3.7-2.2 7.7-4.2l2.6-1.4 5.3-2.7c4.5-2.4 4.5-2.4 7-6.6q.4-3.4.3-6.8v-6c-2.5-1.7-3.4-2.2-6.3-1.2m18 14.5-2.6 1.5-3 1.7-3 1.7-6.6 3.8-9 5.1-9.3 5.3-1.8 1-19.2 11.3q-4.4 2.5-8.7 4.5c-1.5.7-1.5.7-2.5 1.8l-.6 6.1v1.8q-.6 6-.4 12.1l-2.6.8q-5 1.7-9.3 4.5l-1.7 1-5.2 3-3.4 2-17.5 10.3-10.9 6.4-2.4 1.4-16.8 9.5q-15.8 8.9-31.4 18.2l-1.8 1.1-11 6.8-1.7 1-4.3 3c-.3 3-.3 3 0 6l-1.4 1.3c-2.2 2.3-2.3 4.3-2.8 7.4l-.5 3q0 1.2-.3 2.3l-4.1-1.5c-5.3-1.5-5.3-1.5-10.6-.5l-2.8 1.6-1.6 1-4.8 2.8-3.4 2-8.2 4.7-4.1 2.4c-7 3.8-7 3.8-13.4 8.5-1.5 13.4-1.5 27.1-1.6 40.7l-.2 11.4-.2 11.2v4.3c-.2 4.3-.2 8.2 1 12.4 3.8 3.8 8 5.3 13 7 1.7-1.7 1.1-4 1.1-6.2v-46.4L142 244l1.9-.5q2.8-.7 5.3-2.1l1.8-1 2-1.2 2-1.2 4.5-2.6 8-4.5 5.6-3.2 2.7-1.5c8.2-4 8.2-4 14.2-10.2l.1-3.7v-6.7l-.1-5.6 2.8-.9c2.5-.9 4.3-1.6 6.4-3.2 2.8-1.9 2.8-1.9 5.8-2.9l2.7 1.6c2 1 2.8 1.5 5 1q2.8-1.2 5.5-3l2.2-1.1 7.6-4.5 4.6-2.7 13.6-8q11-6.7 22.3-13.1l1.6-1 6.4-3.6 12.3-7.1q13.4-7.8 27.2-15.5l-.1-2.1-.5-9.5-.2-3.3c0-3.3 0-6 .8-9.1 2.7-2.8 5.6-4.3 9-6l2.7-2c3-1.3 4.3-.9 7.3 0 3.2 0 4.2-.4 6.9-2l2.4-1.3 2.5-1.4 2.6-1.5c16.8-8.2 16.8-8.2 31.6-18.8l.1-4.4V72c0-2.2 0-2.2-1.1-4.1-2.6 0-4 1-6.2 2.3m10.8 12.6-2.2 1.4-2.5 1.4-2.5 1.5L369 92l-3 1.7-8.8 5.2-2.8 1.7c-6.9 4-6.9 4-13.4 8.4v2l-6 2v2l-2 .4-2 .6-1 2c3.8-.4 6.6-1.2 10-3 3-1.6 5.6-2.8 9-3l2.3 1.2c3 1 4.3.5 7.2-1l1.7-.9 1.8-1q12.2-6.6 24-14.3l1.7-1 1.3-1q.3-3.3.2-6.6v-1.9L389 81c-1.7 0-3 1.1-4.5 2m23.5 6-1.2 1.3c-2.6 2.5-5.6 3.7-8.9 5.2q-10.4 5.2-20.4 11.5-8.1 5-16.7 9.5-4.5 2.5-8.8 5.5l-3 2c3.9 1.9 5.9 2.2 10 1q4.2-2.1 8.1-4.7 2.2-1.5 4.9-2.3l2.7 1.1c4.7 1.3 7-.6 11.2-2.9l2.8-1.7 2.9-1.6 5.6-3.3 5.7-3.1c4.7-2.3 4.7-2.3 7.9-6.2.3-2 .3-2-.2-5.2l-.1-1.8-.5-4.3zM300.5 99.8l-2 1-2.1 1.2-2.2 1.2-5.2 2.8v9q10.5-6.3 20-14l-3-3c-2.4 0-3.4.6-5.5 1.8m-29.7 5-2 1-2 1.4-4.7 2.8-2.5 1.5-13.5 7.7-25 14.2-1.7 1-17.7 10.3-1.6 1-1.5.8q-13 7.7-26.2 15-9.6 5.3-19 10.9l-15 8.7-2.5 1.5-5.9 3.4 1 3c3 1.4 3 1.4 5.5-.1l2.7-1.7 2.7-1.7 2.1-1.5v-2l2.1-.2c2.7-.8 3.8-1.3 5.9-3 2.2-1.5 2.8-1.8 5.6-1.7 2.4.9 2.4.9 4.3 2.6l2.1 1.3q6.1-1.7 11.5-5l1.6-1 5-2.9 3.5-2 5.3-3.1 15.5-9q13-7.3 25.7-15 13.5-8 27.2-15.7l5.2-2.9q2.6-1.6 5.3-2.8c4.8-2.4 4.8-2.4 8-6.4q.2-2.8-.2-5.6l-.1-2-.5-4.6c-3 0-3.7.2-6.2 1.7m140.5 1.8-3 1.8-1.5.9-8.1 4.8-1.7 1-17 9.8-2.7 1.5-6.3 3.6v2l-2.6.3c-3.8.8-6.3 1.5-9.4 3.7q-1.1 4-1 8l-1.8.2c-7.2 1.2-12.5 3.8-18.7 7.5l-4.5 2.6-4.7 2.8-10 5.8-3.5 2-1.7 1-8.3 4.7-13 7.5-21.6 12.5-19.1 11.2-9.1 5.2-2.4 1.4-7.2 4.2-2.1 1.2-2 1.2-1.8 1c-1.7 1-1.7 1-3.5 3q-.2 3.5-.1 7.1v2l.1 4.9-2.2-.2c-8.8-.5-14.4 1.9-21.7 6.5l-6.6 4-1.6 1q-5.3 3-11.2 5.2c-5.7 2.3-11 4.4-14.7 9.5-2.8 8.7-1.8 18.2-1.2 27.2q.3 7.8.2 15.5v2.7l-.1 5.4v15c0 7.2 0 7.2 1.1 14.2 2.1 2.2 2.1 2.2 4.9 3.5l2.7 1.5c2.4 1.2 2.4 1.2 5.4 1V342q-.4-13.5-.5-27l-.2-14-.2-13.5v-5.1c-.5-10.8-.5-10.8 1.9-15.5 4.2-4.3 9.6-6.7 15-9.1q3.7-1.7 7-3.9 10.2-6 20.7-11.7l2.3-1.3 2.8-1.2c2.3-1.5 2.3-1.5 2.5-3.5V230c0-7.3 0-7.3 2.5-10.2q3.4-1.7 7.2-2.9l3.7-2 3.3-1c2.7 1.4 2.7 1.4 5 3l2-1.2q18.7-11.3 37.7-22 13.8-7.6 27.5-15.7l17.2-9.9 5.3-3q5.8-3.5 12-6.5c6.6-3 6.6-3 11-8.3.6-4 .1-7.5-.7-11.4l2.7-.8q5.6-2.1 11-5.4c2.3-.8 2.3-.8 4.4 0l1.9 1.2c2.8 1.3 2.8 1.3 4.7.4l1.8-1 2-1 2.2-1.3 2.3-1.2 4.7-2.6q3.3-1.8 6.8-3.4c6.7-3 6.7-3 11.1-8.6.7-3.8.2-7.5-.6-11.3-2.8 0-4.3 1.2-6.7 2.6M283 110l1 3Zm10.1 8.8c-3.8 2.8-6.2 3.7-11.1 3.2l-1-2-2.4 1.4q-17.5 10.4-35.1 20.6l-25 14.4-9.8 5.7q-11.7 6.7-23.2 13.6-8.2 4.9-16.5 9.5l-2 1-1.7 1c-1.3.7-1.3.7-2.3 1.8l-.5 8.3-.5 4.7c-2.5 1.2-3.3.8-6 .3-6-.8-9.5 1.5-14.4 4.5l-2.6 1.4-8 4.8-5.2 3.1-9.4 5.7-1.8 1.1c-1.8 1.1-1.8 1.1-3.6 3.1q-.3 4-.2 7.8v30.8l.1 15 .1 29.4 12 6v-3q-.5-13.8-.5-27.7 0-7.2-.3-14.3c-.9-30.6-.9-30.6 3.4-37.7 4-4 8.7-6 14.1-7.6 3.3-1 6-2.7 9-4.5l5.6-3.2 5.8-3.2 2.5-1.4 2.4-1.4 2.8-1.4c2.3-1.4 2.3-1.4 2.9-3.4V202l.1-2.2v-2.3l.2-5.5 2.2-.8q4.9-2.2 9.2-5.4c3-1 3.4-.6 6.2.4 4 1.2 6 .4 9.6-1.5l5.7-3.4 3.1-1.9 6.2-3.7 9.4-5.6 6-3.6 18-10.2 12.2-7.2 12-7 1.7-1 7.3-4q9.2-5.2 18-10.8l2.4-1.5c2.4-2.4 2.4-4 2.4-7.2q-.1-2.3-.6-4.6c-2.7 0-6.7 4.1-8.9 5.8m135.1-2-2.1 1.2-25.3 14.4-14.6 8.4-5.3 3-3.9 2.2v17c-7-3-7-3-9.7-5-4-1.2-4.8-.6-8.4 1.3l-6 3.8-3.2 2-6.5 4q-7 4.2-14 8l-5.2 3-2.5 1.5-11.7 6.7-22.7 13.1-1.6 1L253 221v2l-4.9 1.2c-3 1.2-5.8 2.4-8.1 4.8-.9 2.6-.9 5-.9 7.8v2l-.1 5.2q-.8 0-1.7-.3c-9-.7-15 3.4-22.5 7.7l-3.9 2.2L200 260l-2.8 1.6c-7 3.7-7 3.7-13.2 8.4l-.1 7.5v44.1l.1 28.4 12 6 1-83 6-2 3.7-2 2-1.2 2.1-1.3 4.5-2.7 2.4-1.4 11.4-6.8 2.1-1.2L244 247l-.4-2.6c-.3-3.8-.4-6.6.4-10.4 4-4.3 9.3-7 15-8 3.1 0 3.6.3 6 2 5-.4 8.4-2.1 12.4-4.7l4-2.5 2.2-1.4 13.5-7.6q11.5-6.5 22.8-13.2l2.8-1.7 5.5-3.2q21.6-12.9 43.7-25.2l3-1.6 2.6-1.5 2.5-1.4 2.8-1.5c2.5-1.3 2.5-1.3 2.8-4.3v-3.1c0-5.5 0-5.5 2-8.3q3.8-2.9 8.1-5l3-1.6 2.3-1.2 1.7 1.6c2.2 1.7 2.2 1.7 4.6 1.2 2.9-.8 5-2 7.6-3.4l2.8-1.6 2.8-1.7 2.8-1.6 7.7-4.5 2.8-1.5 2.2-1.5c.4-2.5.5-4.2.3-6.7v-1.8l-.3-4.5c-2.5 0-5.5 2.5-7.8 3.8M328 117c-2.6 1-2.6 1-5 3-.6 2.4-.8 4.2-.8 6.7v1.8l-.2 4.5 4 2v-4.8l-.1-2.7c.1-3 .6-5 2.7-7.2l1.4-1.3zm14 2-1 2 4-1zm-4 2c-2.7 1.4-2.7 1.4-5 3l2 1 6-3zm105.9 6-1.7.8q-10.5 5.7-20.9 12-4.8 3-10 5.5c-7.7 3.4-7.7 3.4-13.1 9.4q-1.3 5.6-.2 11.3l-1.9-.4c-7.2-1.1-11.2.2-17.4 4l-2.5 1.5-8.2 4.9-5.3 3.1-10.9 6.5-18.7 10.8-28.7 16.7-17.2 9.8Q278 228.2 269 234l-3 2-1.6 1-1.5.9c-3.1 1.8-3.1 1.8-5.9 4.1v13l-4.9-1.6c-5.3-1-8.9-.4-13.6 2.3l-1.5.9-4.8 2.8-5 2.9-3.4 2q-5 2.8-10.2 5.4l-2.4 1.2q-2.2 1.2-4.3 2.1c-2.2 1.2-3.4 2-4.9 4-.6 2.6-.6 2.6-.7 5.7v1.7l-.3 5.6v1.9q-.6 13.1-.7 26.2l-.3 12.2-.2 11.9-.1 4.5c-.6 7.8-.6 7.8 2.5 14.6 4 3.3 8.6 5.7 13.8 5.7v-86l5-2 6.4-3.6 1.9-1 7.5-4.5q10.7-6.1 21.8-11.7l2.4-1.2 1.8-.8c1.5-1.2 1.5-1.2 1.5-3.8l-.1-3v-3l-.2-2.4 2.3-.6c4.4-1.4 8.2-4 12.1-6.4 2.6-1 2.6-1 4.7-.2l1.9 1.2c3 1.4 3 1.4 5.6-.1l3-1.8 1.7-1 5.5-3.2 3.8-2.2L316 223l1.6-1 12.7-7.5q9.3-5.4 18.7-10.6l19.5-11.1 3-1.8q7-4 13.8-8.2 5.2-3.2 10.6-6l5.1-2.8 1.8-1c2.1-1.8 1.9-4.1 2.1-6.8q0-4.6-.9-9.2l2-.7q5-2.3 9.7-5.4c3.4-1.3 5.8-.5 9.1.8 3.2.4 4.9-.8 7.7-2.3l1.5-.9 5-2.7 3.2-1.9 8.8-4.9 2.8-1.5c2.3-1.3 2.3-1.3 2.8-3.2l-.1-1.9v-2l-.2-2v-2.2l-.3-5.2c-3.9 0-8.7 4-12.1 6m-103.7.7c-2.7 2.8-2.8 4.3-2.9 8q.1 4.7.7 9.3l1.5-.6 3.6-1.5 5.9-2.9v-16c-3.1 0-6.2 2.1-8.8 3.7M331 130v9h1v-9zm137.3 4-2.3 1.4-2.4 1.4-5.2 3-2.7 1.6q-5 3-10 5.7l-7 4.2q-4.8 2.8-9.9 5.3c-8 3.8-8 3.8-13.7 10.2-1 4.2-.7 8-.1 12.2l-2-.4c-8.6-1.4-13.5 1-20.7 5.5l-3.2 1.9-6.8 4-9.6 5.7-1.6.9-3 1.8-7.5 4.4-15 8.5q-9.7 5.2-19.1 10.9l-13.9 8q-10 5.9-20 12.1l-9.8 6.1-1.7 1.1-4.1 2.5 1 2c5.4-.6 9.4-3.4 14-6.3 4.5-2.7 4.5-2.7 7.3-2.5 1.7.8 1.7.8 3.6 2 2.8 1.1 4.2.6 7.1-.2 2.3-1 2.3-1 4.6-2.3l2.6-1.4 2.8-1.6 3-1.7 9-5 2.6-1.5q17.3-9.7 34.3-19.8 12-7.2 24.4-14.1l7.1-4.1q7.1-4.3 14.7-8c3.8-1.8 7-3.4 9.9-6.5 1.6-5 .9-10 0-15l6.1-3.6 1.8-1c3-1.7 4.7-2.4 8.3-2.2 2.8.8 2.8.8 4.6 2 2.3 1 2.3 1 5-.2q1.5-.7 3-1.7l1.6-.9 3.5-1.9 5.2-2.9 3.4-1.9 1.6-.8c2.8-1.7 3.9-2.9 5.2-6 .7-3 .7-5.2.3-8.3l-.3-2.6-.3-2c-2.5 0-3.5.8-5.7 2m-96 6.5L371 142c3 .3 3 .3 4.7-1.5l1.3-1.5c-3-.3-3-.3-4.7 1.5m-64.9 5-3.4 2.2-6.9 4.3-12 7.3-4 2.3-33.6 19.4-15.5 8.9-2.5 1.4-4.7 2.8q-5.5 3.3-11.3 6c-5.9 2.6-5.9 2.6-10.5 6.9-1.7 5.6-.9 11.3 0 17l-3.2-1c-4.8-1.4-7.9-.6-12.3 1.8l-3.9 2.2-2 1.2q-8.3 4.7-16.3 9.6-7 4.2-14.2 8c-2.2 1.2-2.2 1.2-4.1 3.2q-.3 3.8-.2 7.6v29.6l.1 14.5.1 28.3 4.9 2.5 2.7 1.4c2.3 1.2 2.3 1.2 4.4 1.1v-2.9l-.3-26.8-.1-13.8v-13.3l-.2-5c-.3-13-.3-13 2.9-16.7q4.6-3.6 10-5.8 3.8-1.8 7.5-4l5.6-3.1 3-1.7q6.6-3.9 13.4-7.2c5.6-2.6 5.6-2.6 10.2-6.7 1-3.2.7-6.3.5-9.5 0-4.7 0-4.7 1.6-7q5.2-4.6 11.9-6.5c2.2.2 3.7.9 5.8 1.7 5.6.7 11.5-4 16.2-6.7l2.2-1.3 5.8-3.7q10.3-6.6 21-12.4 29.5-16 58-33.6c-8.7-10.7-16.2-9.3-26.6-2.4m180.6-.8-1.5.9-5 2.8-1.7 1q-12.7 7-25 14.4-3.7 2.3-7.7 4.1c-3.5 1.8-6.3 3.3-9.1 6.1-1 4.6-.8 8.3 0 13l-1.8-.6c-5.4-1.6-8.7-1.7-13.7 1q-2.9 1.5-5.7 3.4l-3 1.9-8.8 5.3-4 2.3-5 3.1q-10.8 6.5-21.8 12.7l-16.4 9.5q-16.7 10-33.9 19c-7.9 4-7.9 4-14.9 9.4v2l-2.6.4c-5.5 1-10.2 2.8-14.4 6.6q-1.6 5.9-1 12c-4.7.3-4.7.3-7.4-2.1-2.4-2.2-2.4-2.2-5.3-1.5q-4 1.8-7.7 4.3-6 3.5-12.2 6.3c-11.8 4.8-11.8 4.8-20.7 13.1-1.3 4.5-.7 8.6 0 13q.5 5.4.3 10.8l.2 23.5v1.7l.3 10.7.1 9.2.4 18 14 7v-3.3q-.5-15.3-.6-30.6l-.3-15.7-.2-15.2v-5.7c-.6-12.3-.6-12.3 2.1-17.5 4.7-4.7 10.7-7.4 16.8-10q4.2-2 8.2-4.2l2.5-1.4c7.7-4.1 7.7-4.1 14.5-9.4v-10l2.2-.8q4-1.8 7.7-4.3c6.7-4 6.7-4 11.1-3.9l2.5 1.6c2.4 1.7 2.4 1.7 5 .8 4.8-1.8 9.3-4.4 13.8-6.9l3-1.6q10.8-6 21.4-12.4 19.6-11.4 39.5-22.5 13-7.2 25.8-14.7 3.5-2.1 7.4-3.9c3.6-1.8 3.6-1.8 6.6-4.4.4-2.8.4-2.8.2-5.8 0-5.3 0-5.3 2.1-7.6 4.4-3.5 10.9-8.2 16.7-8.6 2 1.4 3.3 3.1 5 5 9.8-2.8 20.9-7.6 28-15 2.5-6.1 1.4-12.7 0-19-2 0-4.2 1.7-6 2.7m-95 3.3 2 2v-2zm118.7 8.6q-8 4.8-16 9.2l-8.1 4.5-1.7 1q-8.4 4.6-16.7 9.4l-2.6 1.5-4.6 2.7-5 2.5c-2.2 1.4-2.2 1.4-2.3 3.3 0 2.2 0 2.2.3 5.3l3-1.6 10.2-5.4 4.4-2.5 2-1 1.8-1c2.2-.7 3.4-.3 5.6.5l1.8 1.2c2.3 1.1 2.3 1.1 4.9-.2l3-1.7 1.6-1 5-3 3.5-1.9 9.2-5.4 1.7-1c3.1-1.8 3.1-1.8 5-4.8l-.1-1.9v-2l-.2-2-.1-2.2-.3-5.1c-2 0-3.7 1.6-5.3 2.6M392 156l1 3Zm18 4 3 1 4-4c-3.5 0-4.4.8-7 3m24.9 6-1.7 1.1-1.2.9c3 1.4 3 1.4 5.7-.3l2.3-1.7v-2c-2.4 0-3.2.6-5.1 2m65.6 18.5-1.8 1c-10.1 5-10.1 5-17.7 12.5l2.6 2.1 1.5 1.2c3 1.1 5 0 7.9-1.3q4.2-2.2 8.2-4.8c2.8-1.6 4.2-2.4 7.4-1.5l2.4 1.3c2.3 1.3 2.3 1.3 5 2 2.6-.8 2.6-.8 5-2.4l2.9-1.6 2.8-1.8 3-1.7c4.4-2.4 4.4-2.4 8.3-5.5l.1-4.5v-8.4l-.1-7.1c-10.1 0-28.6 15.2-37.5 20.5m-47.1-5-2.5 1.4-1.9 1.1 3 2 8-4v-3c-2.7 0-4.3 1.1-6.6 2.5m99.3 1.3-2 1.2-2.2 1.3-2.3 1.4-7.2 4.3-2.5 1.5-7.1 4.3-2.2 1.4q-5.1 3-9.9 6.4-4.5 3.2-9.2 5.7l-3 1.6-2.1 1.1v3c3 1.4 3 1.4 5.7-.3l3-1.9 3.3-2 1.5-1c8-4.8 8-4.8 10.5-4.8l2.1 3 1.1 1.7.8 1.3c5.9-1.6 11-4.6 16.3-7.6l2.8-1.5c4.2-2.1 4.2-2.1 7.9-4.9l.1-3.8V185l-.1-6c-2.4 0-3.2.6-5.3 1.8M156 182v2l2-1zm-12.5 7-1.8 1c-3 1.8-3 1.8-5.7 4v10l7-3.4 2-1 1.8-1 1.8-.8c1.4-.7 1.4-.7 2.4-1.8v-11c-2.5 0-5.4 2.6-7.5 4m325.4 4.9-2 1-1.8 1.2-1.7 1c-1.6.9-1.6.9-2.4 2.9 3.6-.7 6.4-2.1 9.6-3.9l3-1.5c2.2-1.5 3.2-2.3 4.4-4.6-3.4 0-6.1 2.2-9 3.9m-353-.4-3 1.6-3.2 1.8-3.2 1.8L97 204l-2.7 1.5-7.1 4.1-2.1 1.2-2 1.2-1.6 1c-1.9 1.2-3.1 2.2-4.5 4q-.5 3.5-.3 7v27l.2 13.2.1 25.8c5 1.7 5 1.7 13-4v-59l5-2 3.3-1.7 1.8-1 2-1 1.9-1 4.1-2.2 6.4-3.4 4-2.2 2-1c3-1.5 3-1.5 5.5-3.5l.1-3.8V197l-.1-6c-4.1-.3-6.5.5-10.1 2.5m437.4 11.1q-8 5-16.3 9.4v2l-2.2.3c-3 .7-5 1.8-7.6 3.3l-2.4 1.3-1.8 1.1c.6 3 .6 3 2.7 4 3.5 0 5.9-2 8.7-3.9 7.3-4.9 7.3-4.9 11.6-5.1l1.9 1.1c2 1.1 2 1.1 4.1.3l2.1-1.1 2.4-1.3 2.5-1.4 2.6-1.4 7.4-4.2 2-1.2 10-5.8-1-11c-8.5 0-19.7 9.4-26.7 13.6m-116-3.5-2.3 1.4q-11.5 6.5-22.7 13.5-8.5 5.3-17.5 9.6-5.4 2.8-10.6 6-10.2 6-20.5 11.8L338.1 258l-14 7.8-8.6 5-1.6.9c-2.6 1.4-2.6 1.4-4.9 3.3v8c-4 1.1-5.4.8-9-1-3.6.4-6.2 1.5-9.3 3.4l-2.4 1.5-2.6 1.6-5.4 3.3-2.7 1.6-13.8 8c-3.1 1.5-3.1 1.5-5.8 3.6v10.8l.1 8.5v6l.3 15.6.2 15.9.4 31.2 11 6c2-2 1.2-6 1.2-8.8V374l.2-24 .1-14.6v-15.7c.2-5.2.2-5.2 1.9-7.6q3.3-2.2 6.8-4.1l1.5-.9 3.3-1.8 5-2.8q7.4-4.3 15.2-8.1l2.2-1.2 4-2c2-.9 3.2-1.6 4.6-3.2q1.2-4.4 1-9c0-3.1.4-4.4 2.6-6.6 4.3-3.5 7.8-5.6 13.4-5.4l4 4c4-.3 6.8-1.8 10.1-3.8l3-1.8 1.5-.9 8.1-4.8 1.6-1 14.1-8q11.7-6.3 23.2-13.3l14.3-8.3 1.5-1 16-9.3 2.7-1.5 4.7-2.7 6.2-3.6 2.3-1.3 2.2-1.3 2-1.2c1.8-1.2 1.8-1.2 2.4-3.8-1.4-3.7-3.5-4.5-6.9-6.4-2.8 0-6.2 2.8-8.6 4.1m156.6-.5-1.5.8-3.4 1.8-5.2 2.9q-8.8 4.8-17.5 9.8l-3.1 1.8-5.9 3.6-2.7 1.5-2.3 1.5c-3.1 1-4.5 0-7.3-1.3-3.8 0-5.3 1.3-8.5 3.4-2.9 2-5.2 3.5-8.5 4.6v5l-2.9-.8c-5.5-.8-9.4 2.3-14 5.1l-5.6 3.4-2.8 1.7q-5.7 3.4-11.6 6.5-11.4 6.3-22.4 13l-21.6 12.6-1.7 1-17.6 10q-14.5 7.9-28.4 17l-1.9 1.3-1.6 1q-3.9 2.3-7.9 4.2v14l-4.5-2c-4.9-1.4-7.6-1-11.8 1.3l-8.2 5.2q-6.6 4-13.3 7.6l-7.5 4.3-6.7 3.6-.6 35.2-.2 16.4-.2 15.8-.2 6c-.7 10-.7 10 2.3 19.2 2.8 2.6 7 5.4 10.9 5.4v-90l26-15 17-10c.6-3 .6-3 .3-6.2l-.1-3.3-.2-2.5 2.2-.8q5.3-2.3 10.3-5.2c2.7-1 4.6-1.2 7.5-1v2q5.4-2 10.4-5l1.5-.8 4.8-2.7 3.4-2q10.5-5.8 20.9-12 7.5-4.4 15-8.5 9.9-5.5 19.5-11.5 6.4-4.2 13.2-7.7l14-7.9 2.7-1.5 7.6-4.4 2.4-1.4 2.2-1.3 2-1.1c1.7-1.2 1.7-1.2 2.5-4.3 0-2.5-.3-4.5-1.1-6.9 1.6-.6 1.6-.6 4-1l2.6 1.3c4.2.9 5 0 8.5-2.1l2.4-1.7c2.7-1.6 4.4-2.4 7.5-2.5 2.8 1.4 2.8 1.4 5 3l15.2-8.4 5.7-3.2q4.4-2.4 8.7-5l2.8-1.5c2.6-1.5 4.6-2.8 6.6-4.9.8-3.1.6-5.8 0-9-2.9 0-4.6 1.2-7 2.6m-122.5.9L466 204v12l-7.3-4.1c-2.6-1.1-2.6-1.1-5-.3L451 213l-1.9 1-6.6 3.6-2.4 1.4q-8.5 4.8-16.8 10-5.6 3.4-11.4 6.4l-13.5 7.5-3 1.7q-20.2 11.5-40.3 23.3l-2.3 1.3-4 2.5q-4.9 2.9-10 5.2c-6.2 2.7-6.2 2.7-10.5 7.7q-1 5.6-.3 11.4c-4.8-.9-4.8-.9-6.5-2.1-1.5-1.1-1.5-1.1-3.6-.7-4 1.1-7.4 3-11 5.2L277 315v89l14 7v-84l5-2 4.4-2.4 2.5-1.4 2.7-1.6 2.7-1.6q10-5.7 20-11.7l2.6-1.6c3.7-2 3.7-2 7.1-4.7l-.1-2.7c-.2-8.8-.2-8.8 2.3-11.6 3.6-2.9 8.3-6 13-5.5q2.5 1.2 4.8 2.8 41.6-23 82.7-47.3l11.7-6.8 2.8-1.6 5.4-3c10-4.8 10-4.8 17.4-12.3v-13c-2.2 0-4.6 1.6-6.6 2.5M492 206c-1.7 5.1-1.3 10.7-1 16l-3-1.6c-4-1.6-7-1.7-11-.4q-3.2 1.7-6.3 3.6l-4 2.5-2.2 1.4q-7.5 4.5-15.3 8.9l-5 3-3.5 1.9-9.7 5.6q-14.1 8.2-28.2 16l-26 15-6.6 4-4.3 2.5q-3 1.7-6.3 3c-3.4 1.5-6 2.9-8.6 5.6-1.7 5.5-1.3 11.3-1 17l-5.6-2.4c-5.9-1.4-10.6.6-15.5 3.7l-3.6 2.2-2 1.2-13.5 7.7-5.4 3-2.4 1.4-2 1.2-1.7.8c-1.5 1.2-1.5 1.2-1.7 3.4l-.1 3-.1 3.3v3.8l-.2 4-.1 9.2-.3 12-.3 16.1-.2 9-.2 10.3-.1 3.1c0 5.5 0 5.5 2.8 10 4.4 3 9.3 5 14.2 7v-3.2l-.3-30-.1-15.5v-14.9l-.2-5.6c-.3-14.5-.3-14.5 2.9-18.4 3.5-3 7.4-4.7 11.7-6.4l4.3-2.5 3.6-2 4-2.3 6.2-3.3 5.8-3.3 1.8-1c3.2-1.7 3.2-1.7 5.3-4.6l.1-5.5v-3c0-2.5 0-2.5-1.1-4.5h2v-2l2-.2c3.6-1 5.8-2.7 8.6-5 2.8-1 3.3-.6 6 .4 3.8 1 5.7.6 9.1-1.1l5.2-3 2.9-1.7 9.2-5.4 3.3-2 13-7.7q9.6-6 19.7-11.3l7.4-4.1 2-1.2q18.6-10.4 37.2-21.3l2-1.2c6.1-3 6.1-3 10-8l.1-2 .2-2.1c.1-2.3.1-2.3-.2-5.3.3-2.8.3-2.8 2.4-5l4.6-2.9 4.3-2.9v-2c-5.8-.4-11 2-15 6m-34-2 2 3 1-3zm25 3c.3 3 .3 3 1 6l2 1v-7zm-263.1 6-1.9 2c3.7-1.1 3.7-1.1 6-4-2.2-.2-2.2-.2-4.1 2m378 1.8q-9.2 5.7-18.7 10.7l-5.1 2.7-2.7 1.3c-2.5 1.3-4.4 2.5-6.4 4.5-.7 3.1-.6 5.8 0 9q10-4.7 19.5-10.5l8.1-4.6 2.8-1.5 5-2.6c2.3-1.1 4-2 5.6-3.8q.9-4.5 0-9c-3.2 0-5.5 2-8.2 3.8m-81.2-.3-2.7 1.4-2 1.1v2l-3 1h4l-1 5-3 1-1 5c-5.9-1-5.9-1-8.2-1.8-4.3-.3-6.8 1.8-10.3 4l-4.6 2.8-2.4 1.5-12.4 7.2-5.4 3-2.8 1.6-15.7 9-1.7 1-17.9 10.4-1.5 1-4.6 2.6q-10.3 6-20.8 11.8-9.9 5.5-19.8 11.5l-2.6 1.6c-3.9 2.1-3.9 2.1-7.3 4.8v15l-1.8-.9c-4-1.6-6.8-2.6-11-1.2q-4.5 2.4-8.7 5.3-15 9.3-30.5 17.8v88c5.8 3.5 5.8 3.5 12 5l-.1-3.2-.9-30.4q0-8-.4-15.7c-1.5-34.7-1.5-34.7 4.9-42 5.7-5.4 12.9-8.1 20.2-10.5 5.2-1.8 9.7-4.6 14.4-7.3l4.7-2.4c1.8-1.1 1.8-1.1 3.2-2.5.7-3.2.7-3.2 0-6l-1-1v-5l7.7-4.6 2.2-1.3c5.4-3.1 5.4-3.1 8.8-3l4.6 1.8c4.5.2 7.6-2.4 11.3-4.8l5.4-3.4 3-1.8q7.2-4.5 14.7-8.6 15.6-8.8 31.1-18l26.6-15.4 2.9-1.6 12.2-6.7 2-1.1 3.6-2c2.4-1.3 3.7-2 4.8-4.6.1-2.2-.3-3.8-.9-5.9v-5l2.1-.7c3.4-1.5 6-3.1 8.9-5.3v-2c-3.7-.3-6 .8-9.3 2.5m102.5 4.3L617 220l-4.7 2.6-7.4 4.2q-14.3 8.2-28.3 16.6-9.5 5.7-19.1 11Q541 263.8 525 274q-11.8 7.4-23.9 14.3c-36.5 19.5-36.5 19.5-70.5 42.7q-3.9 2.8-8.4 4.9-6.8 3.3-13 7.6-3.4 2.4-7.3 4.3-7 3.8-13.9 8.2-7.9 5-16.2 9.5l-10.4 5.8-1.9 1c-3 1.6-3 1.6-5.5 3.7l-.1 6.7v39.7l.1 25.6c2.8 1.3 2.8 1.3 4.6.5l1.6-1 2-1 1.9-1 1.8-1 13.5-8q21.4-12.7 43-25l7.8-4.5 21.9-12.4 1.5-1 7.4-4 15.7-9.2 9-5.2q7.5-4.2 14.8-8.7 13.3-7.9 26.8-15.5l5.9-3.3 3-1.7 23.5-13.5 11-6.3 17.2-10 1.5-.9 1.6-.9q13.3-7.8 26.8-15.3l2.7-1.6 2.4-1.3 2.1-1.2 1.6-.9c1.8-1.1 1.8-1.1 1.8-4.3v-6.5l-.1-7.6v-19l-.2-14-.1-27.7c-3.3 0-6 2.1-8.8 3.8M501 218v4l2-1-1-3zm-400.5 9.4-2.5 1.4c-2 1-2 1-3 2.2l-.1 6.4v37.5L95 299l3.2 2 1.9 1.1c2.2 1.2 2.2 1.2 5.9.9v-78c-2 0-3.8 1.5-5.5 2.4m152.3 7.6-1.8 2 6-2 1-2c-3.1-.3-3.1-.3-5.2 2m295.6 1-3.4 2v16c-8.8-2.8-8.8-2.8-10.8-4.2-2.3-1.1-2.3-1.1-5 .3l-3 1.8-1.8 1-5.5 3.3-3.8 2.2-7.6 4.5-13.6 8-4.5 2.5-2.2 1.3-2.2 1.3-9.4 5.4-2.3 1.4-15 8.6q-24 13.7-48 28.2c-2.3 1.4-2.3 1.4-5 2.7-2.6 1.6-2.6 1.6-2.8 4.8l.2 3.6v1.8l.3 4.5c-4.3.4-6.5-.6-10-3l-2.7 1.5-16.8 9.5-13.1 7.3-1.9 1c-3 1.6-3 1.6-5.5 3.7v13q14.4-7.4 28.1-15.8l7.8-4.7 3.8-2.3q4.1-2.6 8.4-4.7c2.7-1.3 4.8-2.4 6.9-4.5.4-2.6.4-2.6.2-5.4 0-2.8 0-2.8.8-5.6q3.4-2.8 7.3-4.8l2-1c5-2.4 5-2.4 8-1.5l1.7 1.3 2 1c2-.8 2-.8 4.4-2.2l2.7-1.5 3-1.6 3-1.7q12-6.6 23.8-13.8l11-6.4 2.4-1.3 14.2-8.2c19.1-11 19.1-11 38-22.5q7.7-5 16-9 2.3-1.2 4.5-2.8c.4-1.8.4-1.8.3-4v-2.2l-.1-2.4v-2.5l-.2-5.9c-1.7 0-3 1.1-4.6 2m9.6 0v3h2v-3zm-20 5v5l2 1v-6zm-258 1c-2.2.8-2.2.8-4.6 2l-2.5 1-1.9 1 2 2 9-5zm12.4 11-3 1.7-2.4 1.3 1 2c5.2-1.2 8.7-2.9 13-6l-1-2c-3 0-5 1.5-7.6 3m-36.9 12.3-2.5 1.3q-13.6 7.5-27.1 15.3L222 284v88l11 5v-87l6-2c1.8-.8 1.8-.8 3.4-1.8l1.9-1 1.9-1.1 2-1.2 4.4-2.5q3.7-2.3 7.6-4.3l5.1-3 2.5-1.4 2.3-1.3 2-1.2q2.8-1.8 4.9-4.2l-2-4-1 2-2.2-1c-6.6-2.3-10.5 0-16.3 3.3M311 264l-1 2h3v-2zm-6 3v2c2-.3 2-.3 4-1l1-2c-2.2-.1-2.2-.1-5 1m21.4 7-2 1.1-1.4.9 3 3 7-5-1-2c-2.5 0-3.5.8-5.6 2m-24.4 1v2l2-1zm332 1v4l11 6c-1 4-1 4-3.5 5.8l-3.4 1.8-2 1-4 2.3-10.7 5.9-2.3 1.2q-9.8 5.5-19.5 11.5l-20.2 11.8q-6.4 3.6-12.7 7.6l-5.8 3.4q-12.2 6.7-24 13.8-6.6 3.9-13.2 7.4L516 364q-6.4 3.9-13 7.4-11.2 6-22.2 12.7-5 3-10.1 5.8-6.2 3.3-12.2 7.1-7.2 4.5-14.6 8.5-13.5 7.3-26.7 15.3l-13.7 8-1.7 1-8.5 4.8q-9 5.1-18 10.9-4 2.5-8.4 4.9l-2.7 1.4c-3.6 2-6.2 3-10.2 2.2q-3.9-2-7.4-4.4-3.5-2.1-7.4-4-5.6-2.8-11-6.2-8.4-5.2-17-10l-2.6-1.5q-7.6-4.5-15.3-8.6l-3.3-1.9-6.6-3.6q-7.2-3.9-14-8.8-3-2-6.3-3.7-7.4-4-14.6-8.3-8.2-4.9-16.6-9.4l-13-7.4q-6-3.3-12.2-6.3-3-1.6-6-3.8-4.6-2.9-9.7-5.5c-12.3-6.7-12.3-6.7-18-10.7q-5.5-3.5-11.3-6.4l-6.7-3.9c-2.9-1.8-2.9-1.8-6-1.6v-2l-1.6-.8-7.3-3.9-2.6-1.3c-14.6-7.7-14.6-7.7-19.3-10.9-2.8-1.4-4.2-1-7.2-.1v2l2.8.8c3.2 1.2 4 2 6.2 4.2l4.7 2.8 2.9 1.6q1.5.7 3 1.7l6.3 3.5 1.6.9q6.8 3.8 13.7 7.9l2 1.2 4 2.3 8.2 4.9 13 7.6 6.6 3.8q5.5 3 11 6.3l1.5.9 6.3 3.7 4.7 2.8 2.8 1.7q4.1 2 8.7 3.4l3 3 6 3.8 1.7 1q6.7 4.1 13.7 7.8l7.6 4.4 10 5.8q8.1 4.4 16 9.1l17.7 10.2q9.6 5.4 19 11.2 6.1 3.9 12.5 7.2l8.9 5 3 1.8q2.8 1.6 5.6 3.5l2.5 1.7 2.2 1.5c5 1.9 9.4 1 14.2-1.2q4.4-2.4 8.6-5l3.2-2 6.5-3.9 14-8.4 2.7-1.6q15.3-9 30.8-17.4 11.3-6.4 22.5-13l6.8-4 1.7-1.1q15-9 30.6-17.4 8-4.4 15.7-9.5 5.2-3.2 10.5-6l14-8q12.6-7.4 25.4-14.6 16-8.8 31.6-18.3l14.4-8.4 3-1.7 16.8-9.7 1.8-1 9.1-5.2q10.6-6 20.7-12.6c-1.1-3.4-1.5-3.6-4.5-5.2l-2-1.2-2.3-1.2-2.2-1.2zm-567.6 3-1.9 1.1-1.5.9q3.7 2.9 8 5v-9c-1.7 0-3 1.1-4.6 2m-7.4 4c-.8 3.3-1.1 4.7 0 8 2.4 1.7 2.4 1.7 5.4 3.2l3 1.6c2.6 1.4 2.6 1.4 5.6 1.2-.2-2-.2-2-1-4-2-1.4-2-1.4-4.5-2.5S65 289.3 63 288l-1-4zm290 3-1 2 3-1zm-294 9-.2 59v51.2l-.1 12.6V434c-.1 10.7.2 20.9 8 29 5 4.3 10.8 7.4 16.6 10.6l3.9 2.2 7.4 4.3q4.4 2.4 8.6 5 6.4 3.9 13 7.4l14.7 8.1 1.7 1q12.5 6.9 24.8 14.4 7.5 4.5 15 8.6 4.6 2.6 9.1 5.4 7 4.5 14.4 8.3 7 3.9 13.8 8 6 3.6 12 6.8 6.8 3.8 13.5 8 6.2 3.8 12.7 7.2 6 3.2 11.6 6.7 8.1 4.8 16.4 9.3 8.8 4.9 17.4 10l17 9.7 10.4 6 8.8 5 3.6 2 1.7 1q7.2 4 14.1 8.6c2.8 1.8 2.8 1.8 6.1 2.4l.7-63.3q0-14.7.3-29.5l.2-25.6.2-13.6v-12.8l.1-4.6c.5-8 .5-8-2.7-15q-4.7-3.6-10-5.8-4.4-2-8.4-4.6l-3.3-1.9-10.8-6.1-1.9-1.1-17.5-10.2-25-14.5-1.6-1-23.5-13.3q-10.2-5.7-20.2-11.7l-18-10.5-21.9-12.5-1.6-1-20-11.6q-13-7.7-26-15l-9.9-5.7-32.8-18.7L71.9 305l-1.7-1zm18 2 1 3 3-1 1-3c-3-.2-3-.2-5 1m574.2 4.1-8.2 4.6-19 10.7-3.7 2.1L605 325l-1.8 1c-16.9 9.7-16.9 9.7-33.6 19.7q-9.7 5.7-19.5 11.1-10.7 6-21.2 12.3L506.5 382q-20.7 11.8-41.2 24l-1.7 1-1.7 1q-22.1 13.2-44.6 25.6-11.8 6.5-23.3 13.4-9.7 6-19.7 11.5l-2.1 1.2q-7.5 4-15.2 7.3v163c8.8-4.8 8.8-4.8 17.4-9.9q9-5.5 18-10.7l9.2-5.2 1.9-1 18.5-10.7 28.9-16.6 27.9-16.1q9-5.3 18-10.3 9.8-5.5 19.3-11.2l22.2-12.7q13.5-7.6 26.8-15.6 12.5-7.4 25.1-14.4l20.9-12q6-3.8 12.4-7.3l3.6-2 5.3-3 5-2.8 2.9-1.7c7.8-5.2 11.8-11.7 13.7-20.8q.6-6.2.7-12.3v-3.5q.5-19.3.4-38.6v-50.4L655 297c-2.6 0-5.6 2.8-7.8 4.1M78 298l1 2 2-1zm4 2c.1 2.4.1 2.4 1 5 2.2 1.9 2.2 1.9 5 3.3l1.6.9 3.2 1.7 4.9 2.7c4.9 3.1 4.9 3.1 10.3 4.4l-1-5-4-1v-2l-2-1q-7.5-3.5-14.3-8c-1.8-1.2-1.8-1.2-4.7-1m281 4 1 2Zm18 9v5l2 1v-5zm39 13.9-2.2 1c-2 1-2 1-2.8 3.1 3.9-1 7.5-2 11-4v-2c-2.5 0-3.8.8-6 1.9m-23 .1v3Z"/><path d="m582 391 5 2.5 2.7 1.6 3 1.6 2.8 1.6 5.6 3.1 8.6 4.7 13 7.2q.8.6 1.8 1c4.4 2.6 4.4 2.6 5.5 3.7l.1 4.3v8l-.1 6.7-6.4 3.7-5.7 3.2-14.1 8-27.6 16-1.5.9-16.6 9.7q-16.5 9.6-33.3 19-16.6 9-33 18.9l-15.5 9q-4.8 2.6-9.5 5.6l-2.7 1.8-2 1.4c-2.8 1.1-4.3.5-7.1-.2-2.3-1-2.3-1-4.7-2.4l-2.7-1.6-3-1.7-3-1.7-8-4.6-5-3-10-5.7-1.6-1-4.5-2.6-2.5-1.5c-2-1.2-2-1.2-3-2.2q-.4-4.2-.4-8.4v-2.3q-.2-3.2.4-6.3c2.2-2.2 2.2-2.2 5-3q5.1 1.9 9.8 4.5l2.8 1.5 2.8 1.6 3 1.6c21.4 11.8 21.4 11.8 24.2 14 2.3 1.2 4 .4 6.4-.2 2.4-1.1 2.4-1.1 4.8-2.5l2.7-1.6 3-1.7 3-1.8 6.4-3.6 8.6-5q20.2-11.4 40.2-23.1l6-3.6 1.6-.9q12.7-7.5 25.7-14.6 9-5.1 17.7-10.4 10.5-6.3 21.3-12.2-4.5-3.5-9.6-6.1l-1.6-.9-5-2.6-5-2.7-4.5-2.4C574 412 574 412 573 411q-.4-4.5-.3-8.9l-.1-2.5c0-6 0-6 2.1-8.7 3-1.1 4.3-.7 7.3.1m-3 6c-1.5 1.5-1.5 3-1.8 5.1-.1 2.5-.1 2.5.8 4.9 3.1 2.7 6.6 4.4 10.3 6.2q3.8 1.9 7.5 4l2.7 1.4q3.2 1.8 6.3 3.8c2.5 1.5 3.2 1.6 6.3 1.5 3-1 5.3-2.2 7.9-3.9-1.3-3.9-3.4-4.6-7-6.4l-1.7-1-5.8-3-5.7-3-3.7-1.9q-6.3-3.3-12.4-6.9c-1.7-1-1.7-1-3.7-.8m40.5 28-2.3 1.2-2.4 1.5-5.2 3-2.8 1.7-14 8q-11.8 6.6-23.5 13.5-14.8 8.6-29.8 16.8-9.8 5.4-19.5 11.4-6 3.8-12.2 7.3l-2.4 1.4-16.5 9.3q-9.3 5-18.4 10.4l-2.2 1.3-2 1.2-1.8 1c-1.7 1-1.7 1-3.5 3-.2 2.4-.2 2.4-.1 5.1v2.8l.1 2.1q9.1-4.5 17.8-9.7 11.8-7 23.8-13.6 9.2-5.1 18.2-10.6 6.6-3.9 13.3-7.5 13-7 25.6-14.7 11-6.6 22.2-12.8c12.8-7.3 12.8-7.3 25.6-14.9q4.5-2.7 9.2-5 4.5-2 8.3-5.2c1-3.5.8-6.4 0-10-2.5 0-3.4.7-5.5 2M413 493l-1 10 3.9 2.2 2.5 1.5 5.6 3.2 15 8.6 3 1.6 5.5 3.2 2.5 1.5 2.3 1.3c1.5 1 1.5 1 2.7.9v-11l-3.2-1.7q-10.5-5.8-20.8-11.9l-1.5-.9-7.4-4.4-2.7-1.6-2.4-1.5c-2-1.2-2-1.2-4-1M185 207l2 1Z"/></g></svg>